<?xml version="1.0" encoding="UTF-8" standalone="no"?>
<svg
   xmlns:dc="http://purl.org/dc/elements/1.1/"
   xmlns:cc="http://creativecommons.org/ns#"
   xmlns:rdf="http://www.w3.org/1999/02/22-rdf-syntax-ns#"
   xmlns:svg="http://www.w3.org/2000/svg"
   xmlns="http://www.w3.org/2000/svg"
   viewBox="0 0 202.4348 256.99997"
   height="256.99997"
   width="202.4348"
   xml:space="preserve"
   id="svg2"
   version="1.1"><metadata
     id="metadata8"><rdf:RDF><cc:Work
         rdf:about=""><dc:format>image/svg+xml</dc:format><dc:type
           rdf:resource="http://purl.org/dc/dcmitype/StillImage" /><dc:title></dc:title></cc:Work></rdf:RDF></metadata><defs
     id="defs6"><clipPath
       id="clipPath18"
       clipPathUnits="userSpaceOnUse"><path
         style="clip-rule:evenodd"
         id="path16"
         d="M 0,0 H 1562.5 V 1593.75 H 0 Z" /></clipPath><clipPath
       id="clipPath32"
       clipPathUnits="userSpaceOnUse"><path
         style="clip-rule:evenodd"
         id="path30"
         d="M 0,0 H 1562.5 V 1562.5 H 0 Z" /></clipPath><clipPath
       id="clipPath44"
       clipPathUnits="userSpaceOnUse"><path
         style="clip-rule:evenodd"
         id="path42"
         d="m 464.97961,179.72079 h 632.61509 v 803.125 H 464.97961 Z" /></clipPath><clipPath
       id="clipPath56"
       clipPathUnits="userSpaceOnUse"><path
         style="clip-rule:evenodd"
         id="path54"
         d="m 463.8916,179.72079 h 634.375 v 803.125 h -634.375 z" /></clipPath></defs><g
     transform="matrix(0.31999998,0,0,0.31999998,-148.79347,-57.510649)"
     id="g10"><g
       id="g38"><g
         clip-path="url(#clipPath44)"
         id="g40"><g
           transform="matrix(1.6041588,0,0,1.6062501,464.97961,179.72079)"
           id="g46"><path
             id="path48"
             style="fill:#200210;fill-opacity:1;fill-rule:nonzero;stroke:none"
             d="M 378.85156,226.06641 C 368.92188,202.58594 354.70703,181.5 336.60547,163.39844 318.5,145.29297 297.41406,131.07812 273.93359,121.14844 254.14063,112.77734 233.35156,107.76563 211.95313,106.1875 208.62109,81.457031 203.76172,65.390625 197.17578,57.242188 181.02344,37.277344 146.76953,17.015625 145.32031,16.164062 L 117.82813,0 132.95312,28.074219 c 0.0898,0.171875 3.47266,6.496094 7.78907,15.898437 C 120.05078,34.105469 95.355469,27.886719 94.058594,27.5625 L 63.109375,19.855469 85.574219,42.492188 c 0.371094,0.371093 36.980471,37.5 46.957031,65.558592 0.94922,2.66797 1.80469,5.1875 2.57812,7.57031 -4.94921,1.64454 -9.84765,3.48047 -14.68749,5.52735 -23.480474,9.92968 -44.566411,24.14453 -62.667974,42.25 -18.105468,18.10156 -32.320312,39.1875 -42.25,62.66797 C 5.2148438,250.38672 0,276.21094 0,302.82031 c 0,26.61328 5.2148438,52.4375 15.503906,76.75782 9.929688,23.48046 24.144532,44.5664 42.25,62.66796 18.101563,18.10547 39.1875,32.32032 62.667974,42.25 C 144.74219,494.78516 170.56641,500 197.17969,500 c 26.60937,0 52.43359,-5.21484 76.7539,-15.50391 23.48047,-9.92968 44.56641,-24.14453 62.67188,-42.25 18.10156,-18.10156 32.31641,-39.1875 42.24609,-62.66796 10.28907,-24.32032 15.50391,-50.14454 15.50391,-76.75782 0,-26.60937 -5.21484,-52.43359 -15.50391,-76.7539" /></g></g></g><g
       id="g50"><g
         clip-path="url(#clipPath56)"
         id="g52"><g
           transform="matrix(1.6041588,0,0,1.6062501,464.97961,179.72079)"
           id="g58"><path
             id="path60"
             style="fill:#33cbb6;fill-opacity:1;fill-rule:nonzero;stroke:none"
             d="m 199.16797,120.92188 c -0.26953,0.0273 -0.53516,0.0391 -0.80078,0.0547 -0.69922,0.0469 -1.39844,0.0547 -2.09766,0.0391 -0.73437,-0.0195 -1.46484,-0.0703 -2.1914,-0.16016 0.33593,0.89453 0.66796,1.78125 0.99218,2.64453 0.19922,0.53516 0.39453,1.06641 0.58594,1.58594 0.10156,-0.0117 0.20703,-0.0156 0.30859,-0.0312 0.52735,-0.0625 1.04297,-0.15235 1.5586,-0.25 0.66406,-0.12891 1.3164,-0.27735 1.95703,-0.46094 0.30859,-0.0859 0.61328,-0.17578 0.91406,-0.27734 0.47266,-0.15625 0.92969,-0.34766 1.38672,-0.53516 0.91406,-0.37109 1.80859,-0.77734 2.64844,-1.26562 l 0.3789,-0.23047 c -0.0742,-0.75782 -0.14843,-1.51563 -0.22656,-2.27735 -1.76562,0.58985 -3.58594,0.98438 -5.41406,1.16407 z m 76.94141,204.88281 c 0.26562,0.24219 0.5625,0.48437 0.87109,0.71484 1,0.73438 1.62891,0.89453 1.91797,0.92578 0.16797,0.0195 0.34375,0.0274 0.51562,0.0274 1.04297,0 2.15625,-0.27735 2.98828,-0.54688 l -0.58593,-5.875 -5.70703,4.75391 z m -9.88672,-9.45703 3.67187,3.34375 c 0.4336,-0.38672 0.79688,-0.89844 1.0625,-1.33594 0.80469,-1.33984 1.36719,-3.04297 1.75,-4.57813 -1.48437,0.73829 -3.0039,1.38282 -4.54687,1.9336 -0.69532,0.24609 -1.34375,0.45703 -1.9375,0.63672 z M 258,304.91406 c -0.30078,-0.0117 -0.61719,-0.0156 -0.92969,-0.0156 l -0.74218,-0.004 c -0.3711,0 -0.73829,0.004 -1.10157,0.0117 l 3.76172,3.67188 -0.0117,-3.60157 c -0.28125,-0.0273 -0.60547,-0.0469 -0.97656,-0.0625 z m 40.67188,-77.14062 c 0.51562,0.47656 1.0039,0.9375 1.4375,1.35937 l 1.70312,-3.12109 -4.54297,0.50391 c 0.44531,0.38671 0.91406,0.80468 1.40235,1.25781 z m 39.55859,-1.26172 c -1.55859,-1.26953 -3.49219,-2.00781 -5.49609,-2.10156 0.76562,3.39843 -0.25,7.70703 -1.25391,10.76562 4.875,-2.08594 6.35156,-6.5039 6.78516,-8.63672 l -0.0352,-0.0273 z m -47.99219,97.35547 0.42969,1.2539 c 0.48437,-0.0156 1.125,-0.0742 1.80859,-0.24218 0.72266,-0.17578 1.375,-0.44141 1.94141,-0.78907 0.0664,-0.0391 0.31641,-0.22265 0.72656,-0.82031 0.59375,-0.87109 1.14844,-2.11719 1.625,-3.41406 -1.58594,1.08984 -3.35156,2.25 -4.95312,3.16797 -0.57422,0.32812 -1.09766,0.60937 -1.57813,0.84375 z m 23.89063,-97.17188 c 0.0625,2.79297 -0.69922,5.90625 -1.46875,8.29297 4.59765,-2.39062 7.02343,-7.63672 8.14453,-10.96094 0.0351,-0.0977 0.0664,-0.19921 0.0976,-0.29296 l -7.03906,0.66796 c 0.16016,0.70704 0.25,1.46875 0.26563,2.29297 z m -35.60547,3.67188 c 1.24219,1.64844 2.375,2.79297 3.26172,3.5664 l 1.78906,-5.98437 -6.37109,0.53125 c 0.43359,0.66797 0.875,1.29687 1.32031,1.88672 z m -31.9375,63.27344 c -0.21875,-0.0195 -0.44141,-0.0312 -0.66797,-0.043 l -0.26563,-0.0156 c -0.52734,-0.0273 -1.05859,-0.0508 -1.57812,-0.0664 0.81641,0.8789 1.28125,1.38671 1.51562,1.67578 l 0.15235,0.16015 c 0.14844,0.15625 0.28906,0.3086 0.32031,0.34766 0.16406,0.19922 0.83203,0.88281 1.58594,1.64453 l -0.0117,-3.60156 c -0.29688,-0.0352 -0.64844,-0.0703 -1.05078,-0.10156 z m -11.22266,-11.26172 -0.10547,-0.0156 c -0.30859,-0.0391 -0.62109,-0.0703 -0.9375,-0.10156 l -0.125,-0.0117 c -0.43359,-0.043 -0.86328,-0.0859 -1.28906,-0.11719 0.13281,0.16016 0.90625,1.10547 0.90625,1.10547 0.21094,0.25391 0.40234,0.49219 0.54688,0.67969 0.0391,0.0508 0.36328,0.41406 0.41796,0.48828 0.3125,0.38672 0.89454,1.02344 1.53516,1.69531 l -0.0117,-3.59375 c -0.28906,-0.0469 -0.60156,-0.0898 -0.9375,-0.1289 z m 9.8711,-96.27344 c 0.14453,0 0.28906,-0.004 0.42968,-0.0156 -1.17968,-0.45703 -2.51953,-0.83593 -3.84765,-1.13671 1.04297,0.76562 2.18359,1.15234 3.41797,1.15234 z m 19.38281,42.85547 c -2.38281,0.20312 -4.67969,0.51172 -6.20703,0.73437 0.14453,0.76563 0.36718,1.53516 0.67187,2.29688 0.57031,1.42578 1.33594,2.65234 2.02735,3.58984 z m -21.32031,9.09765 c 0.71093,-1.32421 1.71484,-3.19531 2.64453,-4.95312 0.37109,-0.69922 0.67968,-1.29297 0.9414,-1.79297 -2.67968,0.41406 -5.59765,1.49609 -7.27343,2.18359 0.28906,0.62891 0.62109,1.22266 0.99609,1.77735 0.88672,1.32031 1.88672,2.21094 2.69141,2.78515 z M 203.9375,138 c 0,0 0.17969,-0.0391 0.17969,-0.0391 -0.082,-1.1836 -0.16797,-2.39453 -0.25781,-3.63672 -0.125,-1.69531 -0.26563,-3.44141 -0.41407,-5.22266 -0.65625,0.16406 -1.3125,0.29297 -1.96484,0.39063 -0.11328,0.0156 -0.22266,0.0273 -0.33594,0.0391 -0.20312,-0.64453 -0.40625,-1.30078 -0.61328,-1.94531 -0.6875,0.0781 -1.375,0.11328 -2.0625,0.11328 -0.63281,0 -1.26562,-0.0273 -1.89062,-0.0937 0.83593,2.29297 1.59765,4.43359 2.27734,6.375 1.01172,2.8789 1.83984,5.32031 2.47266,7.19922 0.35937,-0.23047 0.74218,-0.42578 1.14062,-0.60157 0.59766,-0.26171 1.22656,-0.47656 1.90234,-0.625 -0.1914,-0.64062 -0.39062,-1.27343 -0.58203,-1.91015 0.0508,-0.0117 0.10157,-0.0312 0.14844,-0.043 z m 19.32422,131.40625 c -0.69531,-0.11719 -1.41016,-0.22266 -2.10547,-0.32031 0.0117,0.0351 0.0234,0.0742 0.0391,0.10937 0.48828,0.73047 0.89844,1.30469 1.21875,1.71485 0.60547,0.77734 1.23438,1.53515 1.89063,2.26953 l -0.0117,-3.58594 c -0.32031,-0.0625 -0.66406,-0.125 -1.03125,-0.1875 z M 182.26563,143.58984 c -2.66407,0.86328 -5.40625,1.41797 -8.17188,1.65235 -0.92187,0.0703 -1.84375,0.10937 -2.73828,0.10937 -1.5625,0 -3.09766,-0.11328 -4.5586,-0.32812 l -0.28125,-0.0391 c -0.23828,-0.0352 -0.46875,-0.0664 -0.70312,-0.10937 -0.375,-0.0703 -0.70703,-0.23047 -0.99219,-0.44531 -0.21094,-1.02344 -0.42578,-2.0625 -0.64844,-3.11719 0.37891,-0.66016 1.0586,-1.12109 1.83594,-1.20313 0.21875,-0.0234 0.4375,-0.0508 0.65235,-0.0781 l 0.36328,-0.043 c 2.26172,-0.27734 4.21875,-0.64453 6.0039,-1.12109 2.23829,-0.58203 4.4375,-1.35547 6.53516,-2.30469 2.12109,-0.95703 4.12109,-2.07422 5.92578,-3.31641 l 1.21094,-0.85547 c -0.95313,-2.64062 -1.92578,-5.26953 -2.89063,-7.83203 -0.53515,-1.41406 -1.08984,-2.86328 -1.66406,-4.34375 -0.25781,-0.66406 -0.51953,-1.33593 -0.78515,-2.01171 -2.88672,1.91796 -6.23047,3.24609 -9.7461,3.86718 -0.88672,0.15625 -1.80078,0.27344 -2.71875,0.34766 -0.91797,0.0781 -1.875,0.11719 -2.85156,0.11719 -0.625,0 -1.25,-0.0156 -1.8711,-0.0469 -1.1289,-0.0508 -2.27734,-0.14844 -3.42578,-0.28906 -0.26953,-0.0352 -0.53906,-0.0742 -0.80468,-0.11719 l -0.27735,-0.043 c -0.17969,-0.69531 -0.35547,-1.39453 -0.54297,-2.10156 -0.73047,-0.11719 -1.45312,-0.27344 -2.17578,-0.41406 -0.53906,-0.10156 -1.08203,-0.1875 -1.61718,-0.30469 -1.38282,-0.30078 -2.75391,-0.62891 -4.11719,-0.98828 -0.21875,-0.0586 -0.34766,-0.28125 -0.28907,-0.5 0.0508,-0.1875 0.22266,-0.3125 0.41016,-0.30469 1.71484,0.0625 3.41406,0.14453 5.10938,0.21875 0.69921,0.0273 1.40234,0.0625 2.09375,0.0781 -0.17579,-0.66797 -0.36329,-1.34766 -0.55079,-2.02344 0.20313,0.0117 0.40235,0.0195 0.60157,0.0234 0.29297,0.008 0.58593,0.008 0.8789,0.0117 l 1.66797,0.008 c 0.44531,-0.004 0.89063,-0.0195 1.33203,-0.0391 l 0.26563,-0.008 c 0.46484,-0.0195 0.92969,-0.043 1.39844,-0.0781 1.51562,-0.10547 2.89453,-0.28125 4.21093,-0.53906 0.5625,-0.10938 1.12891,-0.22266 1.67188,-0.36329 0.23047,-0.0625 0.44922,-0.14062 0.67187,-0.21484 l 0.39063,-0.12891 c 2.35937,-0.75781 4.49609,-1.89062 6.19531,-3.28125 0.3086,-0.25 0.60938,-0.51953 0.90625,-0.80468 -0.41406,-1 -0.83203,-2 -1.25781,-3.00782 -3.43359,-8.136715 -6.79297,-15.374996 -10.01172,-21.562496 l -0.40234,0.351562 -0.10547,0.08203 c -1.27344,1.035156 -2.66797,2.007812 -4.13672,2.898437 -1.24219,0.75 -2.42188,1.382813 -3.60156,1.925781 -0.15625,0.07031 -0.3125,0.136719 -0.47266,0.199219 l -0.23828,0.101563 c -2.16406,0.941406 -4.42578,1.65625 -6.71875,2.148437 -0.21485,-0.617187 -0.46094,-1.242187 -0.7461,-1.882812 -0.3125,0.06641 -0.62109,0.140625 -0.93359,0.195312 -0.36719,0.05859 -0.73437,0.09766 -1.10156,0.148438 -2.48438,0.328125 -4.98828,0.398437 -7.4375,0.06641 -0.22656,-0.03125 -0.38281,-0.234375 -0.35156,-0.460938 0.0234,-0.1875 0.17578,-0.328125 0.35546,-0.351562 2.17188,-0.285156 4.29688,-0.714844 6.35157,-1.316406 0.53125,-0.15625 1.05859,-0.3125 1.58203,-0.492188 0.12109,-0.04297 0.24219,-0.09375 0.36328,-0.132812 -0.31641,-0.578125 -0.66797,-1.164063 -1.03125,-1.753907 0.0117,-0.0039 0.0234,-0.0078 0.0352,-0.01172 l 0.33984,-0.125 c 2.28516,-0.796875 4.48047,-1.808594 6.52344,-3.011719 l 0.10547,-0.0625 c 1.24609,-0.742188 2.48437,-1.585938 3.6875,-2.523438 0.84375,-0.65625 1.55468,-1.253906 2.14843,-1.800781 l 1.36328,-1.3125 0.31641,-0.34375 c -0.95312,-1.632812 -1.89844,-3.167969 -2.82031,-4.589844 -2.90625,-4.488281 -5.67578,-7.976562 -8.23438,-10.367187 C 151.25,62.828125 150.75,62.394531 150.25,62 l -1.66406,0.476563 -0.14063,0.04297 c -2.27344,0.691407 -4.54687,1.5625 -6.76562,2.597657 -2.26953,1.0625 -4.49219,2.296875 -6.61719,3.679687 -0.55859,0.359375 -1.10547,0.742188 -1.65234,1.125 -0.48438,-0.472656 -0.97266,-0.945312 -1.46875,-1.417969 -0.54688,0.390625 -1.08594,0.800782 -1.625,1.210938 -0.91797,0.699219 -1.82813,1.414062 -2.72266,2.160156 -0.17578,0.144531 -0.43359,0.121094 -0.57812,-0.05078 -0.1211,-0.144531 -0.125,-0.347656 -0.0234,-0.496094 0.65625,-0.953125 1.38672,-1.847656 2.14843,-2.722656 0.4336,-0.503906 0.8711,-1.007813 1.33594,-1.492188 -0.48828,-0.453125 -0.98437,-0.898437 -1.47265,-1.351562 0.008,-0.0078 0.0156,-0.02344 0.0273,-0.03125 0.74609,-0.78125 1.42969,-1.453125 2.09375,-2.0625 2.14453,-1.941406 4.50781,-3.691406 7.01562,-5.195313 1.09766,-0.660156 2.2461,-1.28125 3.4336,-1.859375 -4.92969,-2.65625 -10.77344,-5.3125 -17.43359,-7.921875 -0.77735,0.621094 -1.47657,1.242188 -2.1211,1.871094 -1.18359,1.15625 -2.33984,2.460938 -3.33594,3.605469 -0.35156,0.398437 -0.70312,0.804687 -1.05468,1.210937 l -0.24219,0.273438 c -0.51172,-0.421875 -1.03125,-0.859375 -1.53906,-1.277344 -0.4375,0.503906 -0.87891,1 -1.33203,1.496094 -0.26954,0.296875 -0.54297,0.59375 -0.82422,0.886719 -0.16016,0.164062 -0.42188,0.167968 -0.58594,0.0078 -0.12109,-0.117187 -0.15625,-0.289062 -0.10156,-0.441406 0.15625,-0.429688 0.32812,-0.851563 0.5039,-1.273438 0.26563,-0.640625 0.53907,-1.277343 0.82813,-1.90625 -0.53906,-0.4375 -1.07031,-0.859375 -1.60547,-1.285156 0.19922,-0.429687 0.39844,-0.863281 0.61719,-1.308594 0.92968,-1.828125 1.8789,-3.398437 2.89843,-4.796875 -2.44531,-0.863281 -4.96875,-1.71875 -7.53515,-2.550781 -0.36328,0.3125 -0.72656,0.644531 -1.07031,1 l -0.0859,0.07813 c -0.375,0.347656 -0.72266,0.753906 -1.12891,1.226563 -0.22265,0.257812 -0.44922,0.523437 -0.72656,0.824218 -0.004,0.0039 -0.008,0.0078 -0.0117,0.01172 -0.55078,-0.425781 -1.10547,-0.851562 -1.63672,-1.253906 -0.14453,0.05078 -0.30859,0.02734 -0.42969,-0.07813 -0.0937,-0.08594 -0.14062,-0.207031 -0.13671,-0.324219 0,-0.0078 0,-0.01953 0,-0.02734 -0.64844,-0.488281 -1.26954,-0.957031 -1.87501,-1.410156 0.10157,-0.710937 0.25391,-1.417969 0.48829,-2.109375 -1.3711,-0.410156 -2.648441,-0.785156 -3.804691,-1.117187 0.675781,0.734375 1.417969,1.539062 2.199221,2.394531 -5.17969,-3.847656 -8.589846,-6.203125 -8.589846,-6.203125 0,0 2.867187,2.890625 7.246094,7.695312 1.625002,1.785157 3.453122,3.828125 5.425782,6.09375 1.21484,1.394532 2.48437,2.875 3.78906,4.421875 1.95703,2.320313 4,4.804688 6.07031,7.40625 1.38282,1.734375 2.77735,3.519532 4.16797,5.351563 2.08594,2.742187 4.16407,5.582031 6.1836,8.476562 1.34375,1.933594 2.66406,3.886719 3.9375,5.855469 3.82812,5.90625 7.26562,11.9375 9.88281,17.777344 0.83203,1.859375 1.57812,3.703125 2.23047,5.515625 l 0.0508,0.008 1.90625,0.17968 c 2.55078,0.19922 5.1289,0.14454 7.69922,-0.14062 0.73437,-0.082 1.46875,-0.19141 2.20312,-0.30859 0.66016,-0.10938 1.32031,-0.23438 1.97656,-0.37501 -0.19531,-0.63671 -0.40234,-1.28124 -0.59765,-1.92187 0.0586,-0.0117 0.12109,-0.0195 0.18359,-0.0352 1.15625,-0.24218 2.26953,-0.52343 3.3125,-0.83593 0.29688,-0.0898 0.58985,-0.1875 0.88281,-0.28125 l 0.23047,-0.0781 c 1.38672,-0.45312 2.78125,-0.99219 4.14063,-1.593753 0.61328,-0.273437 1.22656,-0.558593 1.82422,-0.847656 0.33203,-0.167969 0.70312,-0.253906 1.07031,-0.253906 0.92578,0 1.75391,0.515625 2.16406,1.347656 0.47266,0.968759 0.24219,2.148439 -0.5664,2.867189 -0.67969,0.60547 -1.4375,1.19922 -2.39063,1.87891 -1.40234,1.00391 -2.94141,1.92969 -4.57812,2.76172 l -0.14063,0.0703 c -0.0937,0.0508 -0.1875,0.10156 -0.29687,0.15625 -1.14844,0.55469 -2.35938,1.05469 -3.69922,1.53516 -0.0391,0.0117 -0.0742,0.0234 -0.11328,0.0352 -0.1836,-0.63672 -0.36719,-1.27734 -0.5586,-1.91797 -0.6289,0.22266 -1.26562,0.42188 -1.90234,0.61328 -0.84766,0.25001 -1.69922,0.48047 -2.56641,0.66797 -2.76172,0.60157 -5.60937,0.87891 -8.46094,0.83985 l -0.2539,-0.0156 c 0.44531,1.3125 0.875,2.59375 1.27734,3.83203 0.28906,0.89063 0.57031,1.76172 0.83985,2.61719 0.17187,0.55859 0.33593,1.09766 0.5039,1.63672 0.45313,1.48438 0.875,2.90625 1.26563,4.27734 0.0937,0.3125 0.1875,0.63672 0.27343,0.94922 0.33204,1.17578 0.63282,2.29688 0.92188,3.38281 0.0586,0.23438 0.125,0.47657 0.18359,0.70704 0.32813,1.25781 0.625,2.45312 0.89453,3.59375 0.008,0.0352 0.0195,0.0781 0.0273,0.11328 0.13672,0.58984 0.26953,1.16015 0.39453,1.71484 0.35937,1.58984 0.66016,3.04688 0.91797,4.39063 0.52734,0.26562 1.0625,0.51953 1.58203,0.80859 0.92187,0.49219 1.81641,1.05078 2.70703,1.60937 0.24609,0.16797 0.49219,0.33594 0.73828,0.50391 0.63281,0.42969 1.26172,0.875 1.85938,1.39063 0.18359,0.15625 0.20312,0.42578 0.0469,0.60937 -0.0859,0.10156 -0.21094,0.15234 -0.33594,0.14844 -1.09765,-0.0273 -2.14843,-0.1836 -3.19531,-0.33594 -0.90234,-0.15625 -1.80078,-0.32422 -2.68359,-0.52734 0.0781,0.51172 0.14844,0.99218 0.20703,1.44922 0.22266,1.67968 0.34766,2.98828 0.41016,3.95312 0.0391,0.56641 0.0586,1.01953 0.0703,1.34766 0.004,0.26172 0.008,0.46093 0.008,0.57812 -0.004,0.10156 -0.004,0.14844 -0.004,0.14844 0,0 0.0234,0.0391 0.0586,0.0859 0.004,0.004 0.008,0.008 0.0156,0.0156 0.0391,0.0547 0.10157,0.14063 0.17969,0.23828 0.0117,0.0156 0.0273,0.0312 0.0391,0.0469 0.0859,0.10937 0.1875,0.23828 0.30469,0.38281 0.0156,0.0195 0.0312,0.0352 0.0469,0.0547 0.1289,0.15625 0.27734,0.33203 0.44531,0.51953 0.004,0.008 0.008,0.0156 0.0156,0.0195 0.17188,0.19531 0.36328,0.41016 0.57422,0.63672 0.008,0.008 0.0156,0.0156 0.0234,0.0273 0.20703,0.21875 0.4375,0.45313 0.67969,0.69532 0.0273,0.0312 0.0508,0.0586 0.082,0.082 0.24219,0.24218 0.5,0.49218 0.77734,0.75 0.0312,0.0273 0.0664,0.0586 0.0977,0.0898 0.28515,0.26172 0.58594,0.53125 0.90625,0.80078 0.0195,0.0195 0.043,0.0352 0.0625,0.0547 0.66406,0.55859 1.40625,1.13281 2.21484,1.69922 0.0312,0.0195 0.0625,0.043 0.0937,0.0664 0.39063,0.26953 0.80078,0.53515 1.22266,0.79296 0.0469,0.0312 0.0937,0.0625 0.14453,0.0898 0,0 0.004,0.004 0.004,0.004 0.13671,0.082 0.28125,0.16016 0.42187,0.23828 0.29688,0.17579 0.58984,0.35157 0.90234,0.51563 0.0391,0.0234 0.082,0.043 0.125,0.0664 0.96094,0.50781 1.99219,0.97265 3.08985,1.37109 0.0234,0.008 0.0469,0.0195 0.0703,0.0273 0.48047,0.17578 0.98438,0.32813 1.49219,0.47266 0.0469,0.0156 0.0937,0.0352 0.14453,0.0469 0.0625,0.0195 0.125,0.0352 0.1875,0.0547 0.36328,0.0977 0.74219,0.17578 1.11719,0.25781 0.19531,0.043 0.38281,0.0937 0.57812,0.13282 0.0312,0.004 0.0625,0.0156 0.0937,0.0234 0,-0.004 0,-0.004 0,-0.008 -0.004,-0.004 -0.004,-0.008 -0.004,-0.0117 -0.11719,-0.68359 -0.2461,-1.39843 -0.375,-2.12109 l 0.13671,0.0312 c 0,0 0.4375,0.10547 0.50391,0.11719 l 0.20703,0.0391 c 1.23828,0.22266 2.42969,0.33203 3.63672,0.33203 0.46485,0 0.9375,-0.0234 1.41406,-0.0547 l 0.15235,-0.0117 c 4.45703,-0.33593 9.05859,-2.10546 13.67578,-5.26562 1.68359,-1.14844 3.38672,-2.49219 5.08203,-4.01172 -0.44922,-1.37109 -1.26953,-3.84375 -2.39062,-7.09375 -2.31641,1.33203 -4.75391,2.41797 -7.25,3.22656 z m 110.01562,165.01563 c -2.44531,1.29297 -4.65625,2.3125 -6.33203,3.03906 1.14844,0.79297 2.08594,1.19531 2.80078,1.19531 0,0 0,0 0.004,0 0.35156,0 1.41015,-0.008 2.77343,-2.67968 0.26172,-0.51172 0.51563,-1.03516 0.75391,-1.55469 z m -122.29687,-8.875 c -0.0312,-0.0781 -0.0742,-0.14844 -0.10938,-0.22656 -0.15234,-0.33594 -0.3125,-0.66797 -0.48047,-0.98438 -0.0625,-0.11719 -0.1289,-0.23047 -0.1914,-0.33984 -0.16407,-0.28906 -0.33204,-0.56641 -0.50782,-0.83985 -0.0664,-0.10156 -0.1289,-0.20312 -0.19922,-0.30468 -0.48828,-0.72657 -1.02343,-1.39453 -1.59375,-2.01563 0,0 0,0 -0.004,0 -0.0469,-0.0547 -0.0977,-0.10547 -0.14844,-0.16015 -0.25391,-0.26563 -0.51172,-0.52344 -0.77734,-0.76954 -0.0469,-0.0469 -0.0937,-0.0937 -0.14453,-0.13671 -0.96876,-0.88672 -2.00391,-1.65625 -3.07032,-2.3125 l -1.29687,1.5625 c -3.67969,-2.21094 -7.70703,-3.08594 -9.84766,-3.41407 l -7.3125,23.78907 0.60547,-0.38282 -3.17578,3.83203 -0.92969,1.125 1.01563,-0.64062 8.19921,-5.17188 19.97266,-12.60546 c 0,0 -0.004,0 -0.004,0 0,-0.004 0,-0.004 0,-0.004 z m -45.01954,-16.25781 c -0.23437,-0.53516 -0.49609,-1.03907 -0.76953,-1.52735 -0.0469,-0.0781 -0.0898,-0.16015 -0.13672,-0.23828 -0.27734,-0.47656 -0.57421,-0.92969 -0.88672,-1.36328 -0.0352,-0.0469 -0.0742,-0.0977 -0.10937,-0.14844 -0.68359,-0.92187 -1.44141,-1.75 -2.24609,-2.49218 h -0.004 l -1.44141,1.39453 c -4.23828,-3.83985 -10.04687,-5.14844 -12.77734,-5.56641 l -7.3125,23.79297 3.55078,-2.24219 -7.05078,6.8125 28.26953,-17.83984 0.91406,-0.57813 c 0,0 0,0 0,-0.004 z M 91.863281,253.49219 c -0.02344,-0.38281 -0.0625,-0.76563 -0.109375,-1.14453 -0.01563,-0.10938 -0.03125,-0.21875 -0.04687,-0.32813 -0.05469,-0.35547 -0.113281,-0.70312 -0.1875,-1.04687 -0.01563,-0.0664 -0.02734,-0.13672 -0.03906,-0.20313 -0.09375,-0.41797 -0.199219,-0.83203 -0.316406,-1.23828 -0.01563,-0.043 -0.02734,-0.0859 -0.04297,-0.13281 -0.05469,-0.17969 -0.117188,-0.35156 -0.175781,-0.53125 -0.05859,-0.17578 -0.109375,-0.35547 -0.171875,-0.53125 -0.03125,-0.0781 -0.05469,-0.15235 -0.08203,-0.22656 -0.144531,-0.37891 -0.292968,-0.75391 -0.449218,-1.1211 l -1.960938,0.53516 c -0.367187,-0.82031 -0.796875,-1.64453 -1.292969,-2.46875 -0.765625,-1.26172 -1.660156,-2.5 -2.664062,-3.67578 -0.734375,-0.86719 -1.417969,-1.57032 -1.949219,-2.08985 l -19.789062,15.10157 0.53125,0.0312 -6.035157,1.65234 17.222657,0.99609 4.5625,0.26563 4.546875,0.26172 5.9375,0.34375 2.183593,0.1289 c 0.09766,-0.46093 0.167969,-0.91797 0.226563,-1.36718 v -0.004 c 0.01563,-0.12891 0.02734,-0.25391 0.04297,-0.38281 0.03516,-0.34766 0.05859,-0.6875 0.07422,-1.02735 0.0078,-0.11328 0.01563,-0.22656 0.01563,-0.34375 0.01172,-0.4375 0.0078,-0.875 -0.01563,-1.30468 -0.0039,-0.0508 -0.01172,-0.0977 -0.01563,-0.14844 z m 154.078129,19.83594 -0.0156,-5.03125 -0.0156,-5.03516 c -0.75,-0.20313 -1.69532,-0.39063 -2.69532,-0.5625 -0.99609,-0.16797 -2.04687,-0.31641 -3.0039,-0.44141 -0.0195,-0.004 -0.0391,-0.004 -0.0586,-0.008 -1.37109,-0.17969 -2.3164,1.33984 -1.55468,2.49219 0.63281,0.96875 1.32031,1.97656 1.85937,2.66406 1.36328,1.75391 2.85547,3.41016 4.46875,4.94922 l 1.01563,0.97266 z M 197.27344,117.72266 c -0.21875,-0.64453 -0.4375,-1.27735 -0.65625,-1.91407 0.0781,-0.0156 0.15625,-0.0273 0.23437,-0.043 l 0.42969,-0.0898 c 0.26172,-0.0547 0.52734,-0.10547 0.78125,-0.17187 1.375,-0.35547 2.6875,-0.80469 3.89453,-1.32032 -0.14453,-1.23828 -0.29687,-2.47656 -0.45312,-3.71484 -0.1875,-1.48828 -0.38672,-2.97656 -0.59766,-4.45703 -0.35937,-2.58594 -0.74609,-5.08984 -1.14062,-7.472657 -0.50391,0.164062 -1.00782,0.3125 -1.50782,0.4375 -1.92187,0.488281 -3.88281,0.75 -5.91015,0.777343 -0.47657,0 -0.96875,-0.02344 -1.46485,-0.05078 -0.2539,-0.6875 -0.51172,-1.386719 -0.76562,-2.0625 -0.76953,-0.07422 -1.52735,-0.207031 -2.27735,-0.378906 -0.23828,-0.05469 -0.48437,-0.09766 -0.71875,-0.164063 -0.22265,-0.0625 -0.35156,-0.292968 -0.28515,-0.511718 0.043,-0.164063 0.18359,-0.273438 0.33984,-0.300782 0.0937,-0.01172 0.1836,-0.03125 0.28125,-0.04687 0.67578,-0.105468 1.34766,-0.214843 2.00781,-0.339843 -0.24218,-0.644532 -0.48046,-1.277344 -0.72265,-1.90625 0.11719,-0.01953 0.23437,-0.03516 0.34765,-0.05859 0.92969,-0.175781 1.72657,-0.363281 2.46094,-0.570313 1.45703,-0.394531 2.89844,-0.902343 4.27735,-1.507812 0.83984,-0.367188 1.66796,-0.777344 2.47265,-1.230469 -0.88672,-4.320312 -1.84765,-8.230469 -2.86719,-11.664062 -0.92578,0.460937 -1.86718,0.859375 -2.80859,1.195312 -2.10547,0.75 -4.28125,1.226563 -6.49219,1.414063 -0.65625,0.05078 -1.3125,0.07422 -1.94531,0.07422 -0.0977,0 -0.19922,-0.0078 -0.29687,-0.0078 -0.28125,-0.6875 -0.5586,-1.367188 -0.82813,-2.019531 -0.76562,-0.03906 -1.52734,-0.140625 -2.27734,-0.273438 -0.26563,-0.04687 -0.53125,-0.08203 -0.79297,-0.140625 -0.22266,-0.05469 -0.35938,-0.273437 -0.3086,-0.5 0.0391,-0.167969 0.17969,-0.289062 0.34375,-0.3125 0.11329,-0.01953 0.21875,-0.04297 0.33204,-0.0625 0.67968,-0.109375 1.35546,-0.226562 2.01562,-0.367187 -0.26953,-0.648438 -0.53516,-1.273438 -0.79297,-1.886719 0.12891,-0.02344 0.25781,-0.04297 0.38672,-0.07031 1.10547,-0.230468 2.0625,-0.480468 2.94141,-0.769531 1.61718,-0.511719 3.19531,-1.175781 4.6914,-1.96875 1.11719,-0.59375 2.17578,-1.25 3.14453,-1.953125 -1.28906,-3.042969 -2.65234,-5.464844 -4.05859,-7.203125 -1.75391,-2.171875 -3.87891,-4.488281 -6.33203,-6.902344 -1.02344,0.882813 -2.01953,1.636719 -3.01953,2.285157 -1.625,1.0625 -3.31641,1.863281 -4.97656,2.40625 C 173.9375,61.347693 173.5,60.7891 173.03906,60.2266 c -0.0156,0.0039 -0.0312,0.01172 -0.0508,0.01563 -0.71094,0.195312 -1.4414,0.324218 -2.17187,0.417968 -1.17969,0.152344 -2.36719,0.167969 -3.51563,-0.03906 -0.22656,-0.03906 -0.375,-0.253906 -0.33594,-0.480469 0.0312,-0.167969 0.16407,-0.292969 0.32032,-0.332031 0.76562,-0.175781 1.5,-0.40625 2.21093,-0.671875 0.66016,-0.246094 1.29688,-0.53125 1.91407,-0.851563 -0.44532,-0.515625 -0.90625,-1.035156 -1.37891,-1.554687 0.15234,-0.07422 0.30859,-0.140625 0.45313,-0.214844 l 0.21484,-0.113281 c 0.12109,-0.0625 0.24219,-0.125 0.37891,-0.199219 1.24609,-0.703125 2.48828,-1.605469 3.6875,-2.683594 0.5664,-0.511718 1.14453,-1.082031 1.74609,-1.714843 -3.3125,-2.894532 -7.01953,-5.890625 -11.06641,-8.945313 -0.26953,0.171875 -0.54297,0.347656 -0.8125,0.527344 -0.9375,0.625 -1.90234,1.328125 -2.83984,2.070312 -0.52344,0.425782 -1.05078,0.871094 -1.59766,1.34375 -0.49219,-0.464843 -0.98437,-0.925781 -1.46875,-1.375 -0.35937,0.308594 -0.71875,0.621094 -1.0664,0.949219 -0.14063,0.128906 -0.27735,0.269531 -0.41797,0.402344 -0.80078,0.75 -1.57813,1.535156 -2.39453,2.339844 -0.16407,0.164062 -0.4336,0.164062 -0.59766,0 -0.10547,-0.109375 -0.14453,-0.265625 -0.10938,-0.402344 0.3086,-1.226563 0.8086,-2.386719 1.38282,-3.511719 0.0547,-0.109375 0.10937,-0.222656 0.16797,-0.335937 0.26953,-0.484375 0.5664,-0.957032 0.86718,-1.429688 -0.51562,-0.460937 -1.01172,-0.910156 -1.5039,-1.351562 0.5,-0.765625 0.96484,-1.402344 1.42187,-1.953125 0.64844,-0.792969 1.35157,-1.554688 2.10938,-2.277344 -4.88672,-3.453125 -9.375,-6.398438 -12.73828,-8.539063 0.62109,1.253907 1.3125,2.664063 2.05468,4.207032 0.47657,0.992187 0.97266,2.039062 1.51953,3.207031 l 0.34375,0.734375 c -2.24609,-1.914063 -3.66406,-3.074219 -3.66406,-3.074219 0.46875,0.984375 0.96485,2.027344 1.47656,3.117188 0.0117,0.02344 0.0234,0.04687 0.0312,0.07031 0.17188,0.367188 0.35157,0.75 0.52735,1.128906 0.34375,0.738282 0.69141,1.488282 1.04687,2.269532 0.0117,0.02734 0.0234,0.05078 0.0312,0.07422 0.25391,0.554688 0.50782,1.117188 0.76563,1.6875 0.0234,0.05469 0.0469,0.109375 0.0742,0.160157 0.26953,0.609375 0.54687,1.21875 0.82422,1.847656 0.26171,0.589844 0.52343,1.191406 0.78906,1.796875 0.0469,0.105469 0.0937,0.214844 0.14062,0.320312 0.53516,1.234375 1.07422,2.496094 1.6211,3.789063 0.0508,0.125 0.10156,0.25 0.15625,0.371094 0,0.0039 0.004,0.0039 0.004,0.0039 0.625,0.40625 1.24219,0.8125 1.83985,1.226562 9.89844,6.816407 20.5664,24.265625 32.61719,53.343756 0.0352,0.0859 0.0703,0.17187 0.10546,0.25781 0.61329,1.47656 1.21094,2.94531 1.79297,4.39453 0.59766,1.48438 1.17969,2.94922 1.74219,4.39453 0.49219,1.25391 0.97266,2.49219 1.4375,3.70703 0.16016,-0.0156 0.32031,-0.0234 0.47656,-0.0391 0.56641,-0.0547 1.12891,-0.13281 1.6836,-0.22266 0.66797,-0.10546 1.32812,-0.22656 1.98828,-0.36718 z m 59.66797,167.51953 1.0039,0.96484 -0.0312,-10.07031 c -0.73047,-0.19531 -1.67968,-0.35156 -2.6914,-0.48047 -0.0352,-0.004 -0.0664,-0.004 -0.0977,-0.0117 -1.02734,-0.125 -2.11719,-0.21875 -3.11328,-0.29297 -2.01563,-0.14062 -3.65625,-0.17968 -3.65625,-0.17968 0.73047,1.29296 3.13672,4.07421 4.04687,5.24609 0.0937,0.12109 0.33985,0.38672 0.4375,0.50781 0.83204,1.03516 3.14063,3.39453 4.10157,4.31641 z m 23.66406,18.33203 -0.0156,-5.03516 c -0.74609,-0.20312 -1.76953,-0.30859 -2.88671,-0.35547 -1.10938,-0.0469 -2.31641,-0.0312 -3.42579,0.004 -2.21875,0.0781 -4.0664,0.25391 -4.0664,0.25391 l 5.20703,5.08593 5.20312,5.08204 -0.0156,-5.03516 z m -16.47656,-11.34766 c -0.0508,-0.0625 -0.39844,-0.41406 -0.44532,-0.47656 -0.45312,-0.58594 -4.03515,-4.29687 -4.40234,-4.94141 0,0 1.74609,-0.0703 3.86328,-0.0391 1.03906,0.0156 2.16406,0.0586 3.21875,0.14453 0.0352,0 0.0664,0.004 0.10156,0.008 1.0625,0.0859 2.04688,0.21875 2.78907,0.41796 l 0.0156,5.03125 0.0156,5.03516 -0.98828,-0.95703 c -0.48047,-0.46094 -3.75391,-3.70703 -4.16797,-4.22266" /><path
             id="path62"
             style="fill:#ffffff;fill-opacity:1;fill-rule:nonzero;stroke:none"
             d="m 204.42969,122.26563 0.3789,-0.23047 c -0.0742,-0.75782 -0.14843,-1.51563 -0.22656,-2.27735 -1.76562,0.58985 -3.58594,0.98438 -5.41406,1.16407 -0.26953,0.0273 -0.53516,0.0391 -0.80078,0.0547 0.27734,0.83985 0.55859,1.67969 0.83594,2.52344 0.0937,0.28125 0.18359,0.5625 0.27734,0.84375 0.30859,-0.0859 0.61328,-0.17578 0.91406,-0.27734 0.47266,-0.15625 0.92969,-0.34766 1.38672,-0.53516 0.91406,-0.37109 1.80859,-0.77734 2.64844,-1.26562 z m -40.66407,-19.47657 c -1.36328,0.97657 -2.80859,1.83985 -4.3164,2.60157 -0.13672,0.0703 -0.26953,0.14453 -0.41016,0.21484 -1.13672,0.54687 -2.30469,1.02734 -3.5,1.45312 0.28125,0.94532 0.55078,1.88282 0.82031,2.82032 0.41407,1.4414 0.82032,2.875 1.21094,4.30078 0.32813,1.1875 0.65235,2.37109 0.96485,3.54297 0.42578,0.0117 0.84765,0.008 1.27343,0.0117 0.44532,0.004 0.89453,0.0117 1.33594,0.008 0.55859,-0.004 1.10938,-0.0273 1.66016,-0.0508 0.48828,-0.0156 0.97656,-0.043 1.46093,-0.0781 1.51172,-0.10547 3.00391,-0.28906 4.45704,-0.57031 0.60547,-0.11719 1.21093,-0.24219 1.80468,-0.39844 0.39454,-0.10547 0.77344,-0.24219 1.16016,-0.36719 2.50391,-0.80859 4.86719,-2.01562 6.83594,-3.63281 0.6914,-0.55469 1.32422,-1.16797 1.89844,-1.8164 0.0312,-0.0312 0.0625,-0.0703 0.0937,-0.10547 -0.57032,-1.39844 -1.16016,-2.8086 -1.75391,-4.22266 -3.46094,-8.199219 -7.29688,-16.5625 -11.29688,-24.011719 l -0.5625,0.5625 -1.65234,1.460938 c -0.0352,0.02734 -0.0742,0.05078 -0.10938,0.08203 0,0 0,0 -0.004,0.0039 -1.24219,1.003907 -2.55078,1.914063 -3.91016,2.738282 -1.10547,0.667968 -2.23828,1.28125 -3.40234,1.820312 -0.22266,0.101563 -0.44922,0.1875 -0.67188,0.28125 -2.15234,0.9375 -4.38672,1.640625 -6.66797,2.101563 0.30469,0.679687 0.56641,1.347656 0.78516,2 1.20703,3.566406 2.33203,7.117184 3.40234,10.632804 1.16016,-0.24609 2.31641,-0.53124 3.46485,-0.87499 0.39062,-0.11719 0.77734,-0.2461 1.16797,-0.375 1.46093,-0.48047 2.90625,-1.03516 4.33203,-1.66797 0.63281,-0.28125 1.26953,-0.57813 1.89844,-0.88672 0.20312,-0.0977 0.44921,-0.0156 0.55078,0.1875 0.082,0.16797 0.0391,0.37109 -0.0977,0.48828 -0.70312,0.625 -1.45312,1.19922 -2.22266,1.74609 z m 41.45704,23.66016 c -1.3125,0.49609 -2.66407,0.85937 -4.03516,1.0625 -0.21875,0.0352 -0.4375,0.0508 -0.65625,0.0742 0.6875,2.13672 1.37109,4.29297 2.04297,6.46875 0.60937,1.95703 1.20703,3.92187 1.79687,5.89843 0.23829,-0.0508 0.47266,-0.11328 0.71875,-0.15234 0.11719,-0.0195 0.51563,-0.0742 1.14454,-0.14844 -0.11329,-1.7539 -0.24219,-3.58593 -0.37891,-5.47265 -0.1875,-2.48438 -0.39453,-5.07032 -0.63281,-7.73047 z m 71.70312,105.12109 c 3.32813,4.41797 5.98438,5.58203 5.98438,5.58203 l 1.87109,-6.26171 1.38672,-4.63672 0.16016,-0.54297 -12.48047,1.04297 c 0.0976,0.17968 0.19531,0.33984 0.29297,0.51562 0.95312,1.69531 1.89062,3.11719 2.78515,4.30078 z m -9.30859,-3.99609 0.4375,-0.82031 c -5.35156,0.14843 -11.84766,1.25781 -11.84766,1.25781 0.004,0.11719 0.0195,0.22656 0.0234,0.34375 0.0937,1.58984 0.46875,3.0625 0.99609,4.37891 1.54297,3.86718 4.28907,6.35156 4.28907,6.35156 l 3.67968,-6.94141 2.42188,-4.57031 z m -77.04688,-90.23438 -1.68359,1.07422 c -2.29297,1.35547 -4.72266,2.45703 -7.23828,3.27344 -2.51172,0.81641 -5.10156,1.33984 -7.70703,1.55859 -2.29688,0.17969 -4.59766,0.13282 -6.85157,-0.20312 -0.30078,-0.043 -0.60547,-0.0742 -0.90625,-0.13281 -0.22265,-0.043 -0.37109,-0.25782 -0.32812,-0.48047 0.0352,-0.1836 0.1875,-0.3125 0.36328,-0.33203 0.35156,-0.0352 0.69531,-0.082 1.04687,-0.125 2.13672,-0.26172 4.23047,-0.625 6.26172,-1.16797 2.36719,-0.61719 4.66407,-1.42969 6.85938,-2.41797 2.19531,-0.99219 4.29297,-2.15625 6.25781,-3.50391 l 0.90625,-0.64453 0.54688,-0.38672 0.97656,-0.76953 c -1.01172,-2.82031 -2.14844,-5.92969 -3.39453,-9.23047 -0.53906,-1.41797 -1.09375,-2.875 -1.67188,-4.35937 -0.55078,-1.42578 -1.12109,-2.87891 -1.70703,-4.35156 -0.0195,-0.043 -0.0352,-0.082 -0.0508,-0.125 -0.0586,0.0469 -0.11328,0.0977 -0.17187,0.14453 -0.32422,0.27734 -0.65235,0.54297 -0.99219,0.79297 -2.94141,2.16015 -6.32422,3.53125 -9.81641,4.14843 -0.84765,0.14844 -1.69531,0.25391 -2.54297,0.32422 -1.49609,0.125 -2.98828,0.13672 -4.46484,0.0664 -1.09766,-0.0508 -2.1836,-0.14453 -3.25781,-0.27344 -0.40235,-0.0547 -0.79688,-0.12109 -1.19532,-0.17969 -0.23047,-0.0352 -0.45703,-0.0664 -0.6875,-0.10156 0.22657,0.85938 0.44532,1.71484 0.66407,2.56641 0.0273,0.10937 0.0547,0.21484 0.082,0.32422 0.36718,1.45312 0.72656,2.89062 1.07422,4.3125 0.85937,3.51953 1.65234,6.9414 2.375,10.21484 0.0117,0.0508 0.0234,0.10547 0.0352,0.15625 1.28516,5.83203 2.35156,11.19531 3.23047,15.95312 0.32031,1.72266 0.62109,3.38672 0.89063,4.9375 0,0.004 0,0.008 0.004,0.0117 0.0352,0.008 0.0742,0.0156 0.11328,0.0234 1.26563,0.22656 2.59766,0.36328 3.99219,0.36328 0.5586,0 1.13281,-0.0273 1.71094,-0.0703 0,0 0.004,0 0.008,-0.004 4.36328,-0.32422 9.27735,-1.92969 14.65235,-5.60547 2.02343,-1.38281 4.10546,-3.05078 6.2539,-5.05468 0,0 -1.33203,-4.17969 -3.625,-10.73438 l -0.0117,0.008 z M 104.08984,41.511719 c 0.21094,-0.558594 0.46094,-1.101563 0.7461,-1.628906 -7.656252,-2.355469 -12.933596,-3.667969 -12.933596,-3.667969 0,0 4.753906,3.28125 11.582036,8.445312 0.0195,-1.0625 0.22656,-2.136718 0.60546,-3.148437 z m 0.13672,3.46875 c -0.0469,0.05469 -0.10937,0.08594 -0.17578,0.109375 3.10547,2.355469 6.61328,5.085937 10.28516,8.054687 0.26172,-0.5625 0.51953,-1.125 0.79297,-1.6875 0.80859,-1.585937 1.71875,-3.152343 2.82031,-4.640625 0.50781,-0.6875 1.0625,-1.347656 1.64453,-1.984375 -3.97656,-1.453125 -7.8125,-2.746093 -11.30469,-3.863281 -0.0195,0.01172 -0.0352,0.02344 -0.0547,0.03906 -0.69141,0.554687 -1.38672,1.136718 -2.03125,1.800781 -0.69141,0.636719 -1.25782,1.378906 -1.95313,2.144531 l -0.0234,0.02734 z m 51.96875,41.039062 c 0.0352,-0.02344 0.0703,-0.04687 0.10938,-0.07031 1.35937,-0.804688 2.65625,-1.699219 3.89453,-2.664063 0.79687,-0.617187 1.57031,-1.257812 2.30859,-1.9375 l 1.40625,-1.355468 1.32031,-1.433594 0.0312,-0.04297 c -1.1914,-2.082031 -2.39453,-4.070312 -3.60156,-5.933594 0,-0.0039 -0.004,-0.0039 -0.004,-0.0078 -2.84766,-4.394531 -5.72266,-8.097656 -8.54688,-10.742188 -0.8125,-0.761718 -1.61719,-1.425781 -2.42187,-2.003906 l -0.75782,0.183594 -1.85547,0.527344 c -0.0703,0.02344 -0.14062,0.04687 -0.21484,0.06641 -2.39453,0.726562 -4.74219,1.632812 -7.02734,2.699219 -2.35547,1.101562 -4.64453,2.371093 -6.85157,3.808593 -0.6914,0.441407 -1.37109,0.910157 -2.04296,1.390625 7.38281,7.054688 13.86328,14.3125 17.37109,20.691407 2.41016,-0.839844 4.71484,-1.90625 6.88281,-3.175782 z M 139.16797,60.1875 c 2.18359,-1.308594 4.49609,-2.417969 6.88281,-3.339844 -6.63281,-3.933593 -14.53906,-7.457031 -22.24219,-10.433593 -1.11328,0.84375 -2.17968,1.734375 -3.1875,2.71875 -1.17578,1.148437 -2.30078,2.40625 -3.42968,3.707031 -0.44922,0.503906 -0.89453,1.019531 -1.34375,1.535156 4.83203,3.953125 9.88281,8.289063 14.6289,12.738281 0.64063,-0.671875 1.30078,-1.332031 1.99219,-1.964843 2.05469,-1.859375 4.30078,-3.523438 6.69922,-4.960938 z m 121.8125,246.85156 -0.008,-3.76953 c -0.75,-0.19922 -1.77344,-0.30859 -2.88672,-0.35547 -0.3711,-0.0117 -0.75391,-0.0156 -1.13672,-0.0156 -0.76953,-0.008 -1.55078,-0.004 -2.29297,0.0234 -1.64453,0.0547 -3.07812,0.16796 -3.71484,0.22265 -0.22266,0.0156 -0.35157,0.0312 -0.35157,0.0312 l 5.20704,5.08203 2.78515,2.71875 2.42188,2.36328 -0.0156,-5.03515 -0.008,-1.26563 z m 6.50781,6.78516 c -2.29687,0.82031 -4.04297,1.19922 -4.875,1.35156 -0.34765,0.0625 -0.54297,0.0859 -0.54297,0.0859 l 4.57032,4.16797 2.96093,2.70312 c 1.26953,-0.39453 2.27735,-1.43359 3.06641,-2.74609 2.20312,-3.64844 2.75,-9.41797 2.75,-9.41797 -2.94531,1.84766 -5.69141,3.05859 -7.92969,3.85547 z m -117.85156,-24.41016 -1.67969,5.45703 -6.4375,20.94922 -0.71875,2.33203 0.92969,-1.125 7.61719,-9.19921 11.96093,-14.44141 1.44922,-1.74609 c -5.88672,-3.64454 -12.5664,-4.03125 -12.5664,-4.03125 z m 76.66797,-16.38672 -0.0117,-4.23437 -0.004,-0.80078 c -0.11328,-0.0312 -0.23828,-0.0586 -0.36328,-0.0899 -0.68359,-0.16796 -1.48437,-0.32421 -2.32812,-0.46875 -0.85547,-0.14453 -1.73828,-0.27343 -2.57813,-0.38281 -0.14062,-0.0234 -0.28906,-0.043 -0.42969,-0.0625 -0.0195,0 -0.0352,-0.004 -0.0547,-0.008 -0.86719,-0.11328 -1.5586,0.44922 -1.76563,1.17187 0.17188,0.63672 0.38281,1.29297 0.62891,1.95704 0.5039,0.7539 1.01562,1.48828 1.4375,2.03125 1.36328,1.7539 2.85547,3.40625 4.46875,4.94921 l 1.01562,0.97266 v -0.57812 l -0.0156,-4.45704 z m 61.43359,49.71875 1.08203,3.14454 0.39844,1.16796 c 0,0 1.70313,0.25782 3.72656,-0.23437 0.82032,-0.19922 1.6875,-0.51563 2.51953,-1.03125 0.47266,-0.28906 0.91407,-0.78516 1.33204,-1.39453 2.14062,-3.14063 3.5,-9.5586 3.5,-9.5586 0,0 -5.36719,4.09766 -9.47266,6.44532 -1.18359,0.67968 -2.26953,1.21875 -3.08594,1.46093 z m -38.08984,-25.64062 -0.004,-1.625 -0.0117,-3.41016 c -0.74218,-0.19922 -1.72656,-0.33203 -2.78906,-0.41797 -0.0312,0 -0.0664,-0.004 -0.0977,-0.008 -0.32031,-0.0273 -0.65234,-0.0391 -0.98437,-0.0586 -0.75391,-0.0391 -1.51563,-0.0703 -2.23828,-0.082 -2.11719,-0.0312 -3.85938,0.0351 -3.85938,0.0351 0.13672,0.24219 0.72657,0.91797 1.4336,1.69922 1.17968,1.29297 2.67968,2.87891 2.96484,3.2461 0.0469,0.0586 0.39844,0.41406 0.44531,0.47265 0.41407,0.51953 3.6875,3.76563 4.16797,4.22656 l 0.98828,0.95704 v -0.29297 l -0.0156,-4.74219 z m 0.66406,-110.51563 c -3.38281,-3.57421 -13.23828,-4.41406 -13.23828,-4.41406 5.21484,9.89844 13.23828,4.41406 13.23828,4.41406 z m -12.10156,45.32813 c -0.70313,0.30078 -1.13672,0.50781 -1.13672,0.50781 0.48437,1.58985 1.14844,2.89453 1.87109,3.96875 2.26563,3.35938 5.14453,4.39844 5.14453,4.39844 0,0 1.9336,-3.5625 3.6211,-6.75391 1.20312,-2.28125 2.28125,-4.37109 2.4375,-4.83593 -0.125,-0.0156 -0.26172,-0.0156 -0.39063,-0.0273 -3.83203,-0.33203 -9.23047,1.7461 -11.54687,2.74219 z m 0.10156,53.98828 -0.008,-1.64844 -0.0117,-3.38672 c -0.73047,-0.19921 -1.67969,-0.35156 -2.69141,-0.48046 -0.0312,-0.004 -0.0664,-0.008 -0.0977,-0.0117 -0.36328,-0.0469 -0.73828,-0.082 -1.10938,-0.11719 -0.67969,-0.0703 -1.35937,-0.12891 -2.0039,-0.17578 -2.01563,-0.14063 -3.65625,-0.1836 -3.65625,-0.1836 0.61718,1.09766 2.43359,3.25 3.52734,4.59766 0.19922,0.24219 0.38281,0.47266 0.51953,0.64844 0.0977,0.12109 0.33984,0.38672 0.4375,0.50781 0.83203,1.03906 3.14063,3.39844 4.10547,4.32031 l 1.00391,0.96485 -0.004,-0.44922 -0.0117,-4.58594 z m 45.68359,36.85938 -0.5664,-5.66407 -7.35938,6.13282 -2.89062,2.41015 c 0,0 1.12109,1.38281 2.61719,2.48438 0.8789,0.64843 1.89062,1.19531 2.8789,1.30468 2.67578,0.29688 5.8711,-1.1875 5.8711,-1.1875 l -0.10157,-0.98437 z m -179.41796,-49.49219 -8.79688,28.62109 23.23828,-22.46094 1.79297,-1.73046 c -6.32031,-5.8086 -15.64063,-6.35157 -15.64063,-6.35157 z M 85.847656,240.08203 c -1.605468,-1.88672 -2.976562,-3.0664 -3.289062,-3.32812 -0.04297,-0.0352 -0.07422,-0.0625 -0.07422,-0.0625 l -1.414062,1.07812 -23.988282,18.30469 19.070313,-5.22656 5.300781,-1.44922 4.703125,-1.28906 0.667969,-0.1836 3.417969,-0.9375 c -0.460938,-1.05469 -0.984375,-2.04687 -1.542969,-2.96875 -0.917969,-1.51953 -1.921875,-2.84765 -2.851562,-3.9375 z M 156.55859,43.4375 c 0.44922,-0.703125 0.92969,-1.394531 1.46875,-2.039062 0.88672,-1.089844 1.87891,-2.097657 2.95703,-3.011719 0.27735,-0.234375 0.57032,-0.445313 0.85547,-0.667969 -11.35937,-8.179687 -21.03906,-13.867187 -21.03906,-13.867187 0,0 2.17578,4.035156 5.30078,10.539062 0,0 4.65235,3.792969 10.45703,9.046875 z m 46.66797,72.37109 0.88282,-0.41406 c -0.0273,-0.23437 -0.0547,-0.46484 -0.082,-0.69922 -0.16796,-1.48828 -0.34765,-2.98437 -0.53906,-4.48047 -0.1914,-1.49609 -0.39062,-2.98828 -0.59765,-4.48046 -0.47266,-3.34766 -0.99219,-6.67188 -1.56641,-9.917974 -1.15625,0.5 -2.34766,0.914063 -3.55859,1.222657 -1.76563,0.449218 -3.57032,0.691406 -5.36329,0.714843 -0.76562,0 -1.52734,-0.03906 -2.28515,-0.113281 0.96875,2.589845 1.95312,5.277345 2.95312,8.054685 0.52344,1.45703 1.05078,2.9375 1.57813,4.4375 0.51562,1.46094 1.03125,2.9375 1.54687,4.4375 0.35938,1.04297 0.71875,2.09375 1.07813,3.15235 0.42969,-0.0937 0.86719,-0.17188 1.29297,-0.28125 1.60937,-0.42188 3.17187,-0.96094 4.66015,-1.63282 z m 108.90625,110.9336 c 0.10938,4.99609 -2.78906,11.375 -2.78906,11.375 8.0625,-1.12891 11.83203,-8.9375 13.35547,-13.44531 0.64062,-1.89063 0.88672,-3.20313 0.88672,-3.20313 l -12.63672,1.20313 c 0.81641,1.05859 1.14844,2.49609 1.18359,4.07031 z M 185.98438,79.578125 c -0.97657,0.07031 -1.95313,0.08594 -2.92188,0.03906 1.92188,4.65625 4.09766,10.160156 6.40234,16.28125 0.88672,-0.167969 1.75782,-0.363282 2.60938,-0.605469 1.57422,-0.425781 3.09766,-0.964844 4.55859,-1.605469 1.36328,-0.59375 2.66797,-1.289062 3.90625,-2.070312 -1.11328,-5.648438 -2.41406,-10.960938 -3.92187,-15.597657 -1.48438,0.910157 -3.04688,1.675782 -4.66797,2.253907 -1.93359,0.691406 -3.94531,1.128906 -5.96484,1.304687 z m 105.875,145.523435 c 0.20312,0.0781 0.4375,0.19922 0.67578,0.33594 1.33984,0.76172 3.1875,2.33594 4.77734,3.80469 1.80859,1.66406 3.28125,3.18359 3.28125,3.18359 l 2.22656,-4.08203 2.58594,-4.74219 -3.72266,0.41016 z m -9.69141,86.04297 c 4.68359,4.26953 8.26172,5.57031 11.14062,-0.0742 1.70704,-3.34375 3.0586,-7.11718 3.0586,-7.11718 -7.23047,4.53515 -14.29688,7.10156 -14.29688,7.10156 l 0.0977,0.0898 z m 57.32422,-86.18359 c -2.70313,-2.20313 -6.26563,-3.05078 -9.67188,-2.28906 0.46094,0.59765 0.76563,1.32031 0.94922,2.11328 1.19141,5.08593 -2.55469,13.33203 -2.55469,13.33203 9.91797,-1.39063 11.80469,-9.69531 12.13282,-11.87891 0.0508,-0.33203 0.0664,-0.52734 0.0664,-0.52734 z M 158.72656,45.425781 c 4.28125,3.964844 8.92578,8.527344 12.6836,12.859375 0.21875,-0.113281 0.4375,-0.21875 0.64843,-0.339843 1.46485,-0.824219 2.8086,-1.832032 4.04688,-2.941407 1.14453,-1.03125 2.21094,-2.167968 3.24219,-3.359375 -4.39063,-3.9375 -9.14844,-7.738281 -13.78125,-11.195312 l -0.49219,0.289062 c -0.51563,0.320313 -1.03906,0.644532 -1.55078,0.984375 -1.01953,0.675782 -2.01563,1.410157 -2.99219,2.183594 -0.60547,0.488281 -1.20703,0.996094 -1.80469,1.519531 z m 19.51563,12.390625 c 1.51172,-0.980468 2.88281,-2.136718 4.15625,-3.351562 2.90625,2.773437 5.58203,5.589844 7.84375,8.386719 1.83203,2.261718 3.46484,5.386718 4.92578,9.117187 l -0.16016,0.132813 c -1.375,1.109375 -2.8789,2.085937 -4.46875,2.929687 -1.58593,0.84375 -3.26953,1.554688 -5.02734,2.109375 -1.01953,0.335938 -2.06641,0.597656 -3.13672,0.820313 -3.07812,-7.375 -5.41016,-12.351563 -6.40234,-13.828125 -0.83985,-1.246094 -1.83594,-2.5625 -2.9336,-3.90625 1.84766,-0.523438 3.59766,-1.363282 5.20313,-2.410157" /><path
             id="path64"
             style="fill:#9269df;fill-opacity:1;fill-rule:nonzero;stroke:none"
             d="m 331.22266,196.26563 c 2.10937,2.78515 6.65625,0.4375 6.65625,0.4375 0,0 -4.14844,-5.95704 -7.76563,-5.48047 -3.61328,0.47265 -5.02734,1.53125 -5.02734,1.53125 0,0 4.02734,0.73047 6.13672,3.51172 z M 231.625,397.19922 c 0.48828,0.22656 2.40625,1.4375 2.78516,1.05469 -0.92969,-0.35157 -1.85547,-0.70313 -2.78516,-1.05469 z m 4.67969,19.46094 c 0.125,0.65234 0.24219,1.30859 0.35547,1.96484 -2.4336,-5.32422 -5.85547,-10.13281 -9.75,-14.48047 -0.043,0.96485 -0.082,1.92969 -0.1211,2.89063 -2.39062,-2.83594 -5.0039,-5.49219 -7.72656,-8.01172 -0.31641,-0.29297 -0.63672,-0.58594 -0.96094,-0.87891 -0.55859,-0.5039 -0.51172,-0.53515 -0.44922,-1.27344 0.0781,-0.92968 -0.0117,-1.88671 -0.0391,-2.82421 -0.0547,-1.9375 -0.19531,-3.86719 -0.41406,-5.79297 4.13672,1.95312 8.27344,3.91406 12.42578,5.83203 0.91797,0.42187 1.83203,0.83984 2.75,1.26172 0.34766,0.15625 1.20703,0.76172 1.56641,0.71484 0.39453,-0.0508 1.0664,-0.86328 1.35937,-1.10156 0.71875,-0.58203 1.4375,-1.16406 2.17188,-1.73047 5.42187,-4.17969 11.26172,-7.92578 17.24218,-11.25781 2.98438,-1.66797 6.03125,-3.23047 9.15625,-4.62891 3.05079,-1.36328 6.1836,-2.41016 9.30469,-3.59766 0.54297,-0.20703 0.8125,-0.4414 1.32813,-0.20312 0.38672,0.17969 0.75,0.49219 1.10547,0.72656 0.78515,0.51953 1.5664,1.04688 2.34375,1.57813 1.55468,1.05859 3.09375,2.14453 4.61328,3.25 3.12109,2.26562 6.19531,4.61718 9.14453,7.09765 -0.97656,0.0586 -1.95703,0.1211 -2.9336,0.19141 5.89454,4.71875 11.36719,10.01172 16.24219,15.78125 -10.88672,3.84766 -21.01953,9.65234 -30.6289,15.99609 -1.1211,-1.93359 -2.48829,-3.73437 -4.07813,-5.30859 -1.30078,-1.28516 -3.35937,-3.58203 -5.36719,-2.40625 -2.42578,1.42187 -0.35547,4.49609 0.44141,6.28906 -2.74219,-3.67969 -6.39844,-6.78125 -10.67578,-8.51562 -0.92578,-0.375 -1.83594,-0.65625 -2.76953,-0.13672 -0.92188,0.51172 -1.41016,1.60547 -1.1836,2.63281 0.23828,1.07422 1.22657,1.65625 1.9961,2.33984 0.85937,0.75782 1.68359,1.5586 2.45312,2.41407 -6.35547,-4.94532 -13.89453,-7.6836 -21.22265,-10.8125 0.77343,4 1.54687,8 2.32031,12 z m 27.3789,-227.79688 c -1.84765,-1.67578 -3.90625,-3.14844 -5.99609,-4.5 -3.92578,-2.54687 -8.30469,-4.91406 -12.89453,-5.96484 -7.48438,-1.71485 -15.57031,-1.28125 -23.17188,-0.76172 -2.02734,0.13672 -4.05859,0.30078 -6.07812,0.52734 1.44141,1.44532 3.04297,2.73047 4.69141,3.92969 -1.42579,-0.23047 -2.85157,-0.46094 -4.26954,-0.72266 -0.6875,-0.125 -1.375,-0.29296 -2.0625,-0.38281 -0.28125,-0.0391 -0.60546,-0.18359 -0.80859,0.11328 -0.12109,0.1836 -0.0547,0.45703 0.12891,0.57032 4,2.53906 8.71484,4.16796 13.30859,5.21484 0.61719,0.14062 1.25,0.23828 1.86328,0.39062 0.61328,0.16016 1.13672,0.47266 1.70313,0.75782 1.09765,0.55468 2.20703,1.08203 3.33203,1.58203 2.04297,0.90625 4.125,1.72265 6.25781,2.38672 2.69922,0.83984 6.48047,2.04297 9.25391,0.84765 1.24609,-0.53125 2.21875,-1.60547 3.48047,-2.17968 1.5039,-0.6836 3.11718,-1.10547 4.73828,-1.38672 2.14062,-0.36719 4.35156,-0.52735 6.52343,-0.42188 z m 79.20313,20.36719 c -0.0391,0.16797 -0.28906,0.74219 -0.22266,0.90234 0.11328,0.26172 0.76953,0.30078 1.06641,0.42578 -0.67969,2.69532 -0.49219,5.60547 -2.53516,7.64454 -0.98437,0.98437 -2.39453,1.95312 -3.85547,1.57812 -1.39843,-0.35547 -2.73046,-0.9375 -4.14843,-1.26172 -3.57422,-0.8125 -7.30078,-0.91406 -10.91407,-0.26172 -2.66015,0.48047 -5.28125,1.01172 -7.96484,1.34375 -6.07031,0.75 -12.17578,1.15625 -18.27344,1.62891 -2.72656,0.21484 -5.45703,0.42578 -8.17578,0.71484 -3.10156,0.32813 -6.16797,0.86328 -9.28906,0.96094 -3.60938,0.11719 -7.21875,0.0781 -10.83203,0.23047 -1.69922,0.0742 -3.39844,0.16797 -5.09766,0.27734 -0.69922,0.0508 -3.43359,0.19141 -3.43359,0.19141 0,0 -1.63281,-0.375 -2.48438,-0.69141 -0.64062,-0.23437 -2.46875,-0.74609 -3.15234,-0.66015 -0.86328,0.10547 -1.73047,0.22265 -2.59375,0.34375 -1.92188,0.26562 -3.83984,0.59375 -5.74219,0.98047 -4.35156,0.8789 -8.82031,2.03906 -12.70312,4.25781 -0.33203,0.1914 -0.75391,0.55469 -1.11719,0.57422 -0.35156,0.0234 -0.78906,-0.16407 -1.13672,-0.22657 -0.69531,-0.13281 -1.39453,-0.24218 -2.09375,-0.34765 -1.68359,-0.25781 -3.37891,-0.4375 -5.08203,-0.5586 -1.69922,-0.125 -3.40234,-0.1875 -5.10938,-0.17578 -0.23437,0.004 -0.70312,-0.0703 -0.92578,0.0117 -0.34375,0.13281 -0.77343,0.75 -1.03906,1.01953 -0.28516,0.28907 -0.64844,0.86328 -1.00781,1.05469 -0.26563,0.14063 -0.82422,0.043 -1.13281,0.0664 -1.7461,0.125 -3.48438,0.32422 -5.21094,0.58984 -7.14844,1.10156 -14.08203,3.71484 -20.0586,7.80078 -1.39453,0.95313 -2.73828,1.9961 -4.00781,3.10547 3.875,-0.32812 7.90625,-0.20703 11.73047,0.54688 -2.76172,0.0625 -5.48047,0.85546 -7.79297,2.375 -0.98437,0.64843 -1.89844,1.42187 -2.68359,2.30078 -0.34766,0.38281 -0.71094,0.79687 -0.97266,1.24609 -0.45312,0.77734 0.0273,1.01953 0.71485,0.63672 2.39062,-1.34375 4.74218,-2.44141 7.51562,-2.71484 1.33203,-0.13282 2.67969,-0.082 3.99609,0.14843 0.71875,0.125 1.4375,0.3086 2.13282,0.53516 0.3164,0.10156 0.73828,0.19922 1.02343,0.37891 0.53125,0.33593 0.30469,-0.0156 0.26172,0.37109 -0.043,0.41797 -0.46093,0.99219 -0.63281,1.37891 -0.23828,0.53125 -0.46875,1.05859 -0.69531,1.58984 -0.51953,1.23047 -1.01172,2.46875 -1.47266,3.72266 -0.97656,2.66796 -1.8125,5.38281 -2.47656,8.14453 -1.27344,5.32422 -1.91797,10.91406 -1.13672,16.36328 0.0977,0.67578 0.21875,1.35547 0.36328,2.02344 0.0352,0.16796 0.1875,0.54687 0.1211,0.69531 -0.0586,0.14453 -0.33204,0.30859 -0.44141,0.41015 -0.67969,0.61719 -1.35547,1.23829 -2.03125,1.85547 -2.125,1.94532 -4.25,3.89453 -6.375,5.83985 -1.70313,1.55859 -3.40625,3.11718 -5.10938,4.67578 -0.3125,0.28906 -0.63281,0.57812 -0.94921,0.86719 -0.33594,0.30859 -0.57422,0.71093 -0.92579,0.60546 -0.59765,-0.17968 -1.08593,-1.21875 -1.38281,-1.69531 -1.52344,-2.46094 -3.4375,-4.64844 -5.66015,-6.5039 -1.05079,-0.875 -2.16797,-1.67969 -3.32813,-2.40625 -0.62109,-0.39063 -1.25781,-0.75782 -1.90625,-1.10938 -0.30859,-0.16406 -0.61328,-0.32422 -0.92578,-0.48047 -0.50391,-0.2539 -0.51172,-0.16797 -0.55469,-0.63281 -0.0273,-0.28516 0.14844,-0.72266 0.21094,-1.00391 0.15625,-0.73047 0.12109,-0.6914 -0.57031,-0.99218 -0.6875,-0.30079 -1.38672,-0.57813 -2.08985,-0.84375 -1.41797,-0.52344 -2.86719,-0.96875 -4.33594,-1.33594 -1.98828,-0.49219 -4.01953,-0.84766 -6.0625,-1 2.82422,-4.96094 5.84375,-9.83985 9.25391,-14.42188 1.59375,-2.14062 3.28125,-4.24218 5.18359,-6.125 0.85938,-0.84765 1.75391,-1.66797 2.74219,-2.36718 0.16797,-0.11719 0.95313,-0.4961 0.99219,-0.65625 0.0391,-0.15625 -0.3125,-0.6836 -0.375,-0.82422 -0.11719,-0.25782 -0.46094,-1.42578 -0.70312,-1.53516 -0.11329,-0.0508 -0.85547,0.32422 -0.9961,0.38281 -0.78125,0.32032 -1.55859,0.65625 -2.32812,1.00782 -2.60938,1.19921 -5.14063,2.5664 -7.55469,4.12109 -4.33985,2.79297 -8.80078,5.28125 -12.85156,8.51562 -4.79688,3.82813 -9.16016,8.35938 -12.15625,13.75391 -0.67188,-1.32422 -1.46094,-2.59375 -2.34766,-3.78125 -0.41797,-0.55859 -0.85938,-1.09766 -1.31641,-1.62109 -0.44531,-0.50391 -1.18359,-1.01953 -1.52343,-1.58594 -0.30469,-0.13281 -0.35547,-0.32813 -0.14844,-0.58594 0.0625,-0.16406 0.12109,-0.33203 0.18359,-0.49609 0.10547,-0.28125 0.38672,-0.71875 0.38281,-1.01172 -0.008,-0.48438 -1.05859,-1.12109 -1.5,-1.46094 -1.09374,-0.84765 -2.24609,-1.625 -3.4375,-2.32812 -4.35156,-2.58203 -9.27343,-4.28516 -14.28515,-4.9961 2.74609,-4.10547 5.49219,-8.20703 8.23828,-12.3125 0.16406,-0.24609 0.49219,-0.57422 0.57422,-0.85937 0.10937,-0.36719 0.13672,-0.0234 -0.0508,-0.41406 -0.17188,-0.35938 -0.96875,-1.21485 -1.30469,-1.37891 -0.37109,-0.17969 -0.22266,-0.1875 -0.69922,0.17969 -0.61719,0.48047 -1.21875,0.97656 -1.82812,1.46875 -1.76563,1.4375 -3.81641,2.5 -5.76953,3.66406 -2.28125,1.35937 -4.56641,2.71875 -6.84766,4.07812 0.16797,-8.63671 -4.089845,-16.89843 -10.04297,-22.95312 4.832031,-3.10156 9.76172,-6.05859 14.79297,-8.82813 5.40625,-2.97265 10.96484,-5.8164 16.78125,-7.89453 -7.46875,1.16407 -15.30859,1.05469 -22.79688,0.14063 -9.203121,-1.125 -18.429684,-3.83594 -26.062496,-9.23438 -3.605469,-2.55078 -6.757813,-5.69922 -9.289063,-9.3164 7.011719,-2.4336 13.992188,-4.98828 20.917969,-7.66016 4.242188,-1.63672 8.472656,-3.31641 12.644531,-5.13672 1.824219,-0.79687 3.644529,-1.61719 5.425779,-2.51562 0.41016,-0.20703 1.07813,-0.72266 1.53125,-0.80078 0.39844,-0.0703 1.05469,0.18359 1.47266,0.23437 1.15625,0.13672 2.32031,0.15234 3.48437,0.10938 4.89454,-0.19141 9.875,-1.69532 14.05469,-4.25 -1.05859,1.35156 -2.1914,2.64453 -3.37109,3.89453 1.96484,-0.79688 3.86328,-1.75391 5.60547,-2.96094 1.30078,-0.89844 3.375,-2.14063 3.29687,-3.94531 -0.0781,-1.90235 -2.10547,-2.75391 -3.67187,-1.92969 -1.73828,0.91406 -3.39063,1.79687 -5.27735,2.40234 -4.05468,1.29297 -8.67187,2.00782 -12.89843,1.21094 -1.02344,-0.19531 -1.45704,-0.28906 -2.11719,-0.97266 -0.69141,-0.71484 -1.37891,-1.42968 -2.07032,-2.14453 -1.29296,-1.33984 -2.58593,-2.67578 -3.8789,-4.01562 8.58984,-3.21875 17.17578,-6.4336 25.76172,-9.64844 4.6875,-1.75391 9.375,-3.50781 14.0664,-5.26563 0.53907,-0.20312 1.07813,-0.41796 1.6211,-0.60546 0.4375,-0.15235 0.30078,-0.19532 0.63672,0.10937 0.98437,0.88281 1.7539,2.30078 2.6289,3.29688 4.47266,5.08593 10.24219,9.1875 16.65625,11.40625 4.90625,1.6914 10.15625,2.21875 15.29688,1.53906 2.92969,-0.38672 5.80469,-1.14063 8.5625,-2.20313 2.82812,-1.08984 5.36719,-2.57812 7.98828,-4.0625 1.26562,-0.71484 2.68359,-1.18359 3.97656,-1.86328 1.3711,-0.71484 2.69141,-1.53125 3.9375,-2.45312 2.3086,-1.70313 4.38281,-3.75391 6.00781,-6.12891 0.38672,-0.55859 0.92188,-2.01172 1.49219,-2.26562 0.4375,-0.19532 1.33594,-0.1211 1.80469,-0.16016 1.08594,-0.082 2.17187,-0.14063 3.26172,-0.17188 5.64062,-0.16796 11.29297,0.19141 16.875,1.03516 7.88672,1.19141 15.99609,3.27734 23.12109,6.92578 10.58594,5.42578 19.48828,14.00391 27.01563,23.08985 1.78125,2.14843 3.49218,4.35547 5.11718,6.62109 -5.02343,2.33594 -10.04296,4.67188 -15.0625,7.00781 4.25782,0.77344 8.44141,1.60547 12.78125,1.69141 6.24219,0.12891 12.5,-0.53516 18.58985,-1.90625 3.05469,-0.6875 6.07031,-1.53125 9.03515,-2.54297 4.13282,-1.41406 8.09766,-3.18359 12.5,-3.57031 6.7461,-0.59375 13.5625,1.76562 17.89063,7.11328 1.05469,1.30469 2.05078,2.82422 2.47656,4.46484 0.32422,1.23438 0.008,2.58203 -0.21484,3.82032 -0.21875,1.21093 -0.47266,2.41406 -0.75,3.61328 -0.13281,0.58984 -0.27344,1.17187 -0.41797,1.75781 z m -127.24609,44.18359 c 0.54296,-4.2539 0.91796,-8.52734 1.17578,-12.80468 -5.9375,5.14062 -10.17969,12.09375 -11.82422,19.78515 -0.41797,-1.10937 -0.82813,-2.22265 -1.22266,-3.33984 -2.875,9.52734 -1.83203,20.42578 2.23047,29.47265 2.01953,4.49219 5.05078,8.5 8.92188,11.5625 1.83593,1.44922 3.83593,2.67969 5.92187,3.73829 2.01172,1.02734 4.20313,1.77343 6.14063,2.9375 1.73046,1.03906 3.01171,3.05859 4.32031,4.57031 1.65625,1.90625 3.3164,3.80859 4.99219,5.69922 3.46875,3.91015 6.99609,7.77734 10.63281,11.53515 3.54297,3.65625 7.17578,7.26563 11.10547,10.51172 3.47265,2.86719 7.125,5.30078 11.57812,6.29688 4.33594,0.96875 8.82813,0.39453 12.52344,-2.19922 3.54297,-2.48828 6.13281,-6.34375 7.64453,-10.36328 -0.5,-0.16407 -0.66406,-0.25 -1.14453,-0.16016 -0.33594,0.0664 -0.67969,0.22656 -1.00781,0.32813 -1.03516,0.32421 -2.08203,0.60937 -3.13672,0.85546 -2.19531,0.51563 -4.45703,0.87891 -6.71875,0.88672 -2.125,0.008 -4.42969,-0.28906 -6.2461,-1.48047 -1.0664,-0.69921 -1.79296,-1.71484 -2.60546,-2.66796 -3.91407,-4.57813 -8.14454,-8.89844 -12.32032,-13.23438 -5.16406,-5.36328 -10.3789,-10.67187 -15.63672,-15.94531 -2.01953,-2.02344 -4.04296,-4.03906 -6.08593,-6.04297 -0.84375,-0.82813 -2.3086,-1.21094 -3.38282,-1.70313 -0.5664,-0.26171 -1.13281,-0.52343 -1.69531,-0.79296 -0.65234,-0.3125 -1.03125,-0.67579 -1.52734,-1.1875 -1.83594,-1.88282 -3.60156,-3.83985 -5.25781,-5.88672 -3.30079,-4.08985 -6.22657,-8.58594 -7.83204,-13.62891 -0.82031,-2.5625 -1.19921,-5.29297 -0.91406,-7.97656 0.30469,-2.9336 0.9961,-5.83594 1.3711,-8.76563 z m 99.3789,162.83203 c -0.12109,-0.19921 -0.24219,-0.39843 -0.35937,-0.60156 0.58203,-0.32422 1.16406,-0.64844 1.75,-0.97265 -0.60547,-1.01563 -1.25,-2.01563 -1.88672,-3.01172 -0.34375,-0.54297 -0.69531,-1.08594 -1.05469,-1.6211 -0.19141,-0.28906 -0.95703,-1.80859 -1.30078,-1.90234 -0.25781,-0.0742 -1.50781,0.66016 -1.77344,0.77344 -0.59375,0.25781 -1.1875,0.50781 -1.78125,0.76172 -1.30469,0.5664 -2.59765,1.16406 -3.875,1.79296 -4.76172,2.34766 -9.33594,5.10547 -13.79297,7.98438 -8.89453,5.76172 -17.51562,12.04297 -25.73047,18.73828 -1.65234,1.34766 -3.30078,2.70313 -4.94921,4.05078 -0.76954,-1.92578 -1.53516,-3.85937 -2.3086,-5.78515 -1.99609,-4.97266 -5.1875,-8.94922 -9.39062,-12.25782 0.41406,2.71094 0.99609,5.58594 0.83593,8.33203 -0.125,2.13282 -0.45703,4.21094 -1.09375,6.26172 -0.85156,2.75391 -2.1875,5.29297 -3.75,7.70313 -0.80468,1.24219 -1.70703,2.43359 -2.66015,3.5625 -0.4336,0.51562 -1.41406,1.07812 -1.58594,1.64844 -0.21094,0.69531 0.008,1.80859 0,2.54687 -0.0352,3.58984 -0.20703,7.18359 -0.54297,10.76172 0.76953,-1.38672 1.53906,-2.76953 2.3086,-4.15234 -0.0508,0.92187 -0.10938,1.84375 -0.1836,2.76171 11.35938,-3.14843 22.37891,-7.51953 32.81641,-13.0039 10.48047,-5.50781 20.36719,-12.13672 29.44922,-19.73828 2.55078,-2.13282 5.03515,-4.33985 7.45312,-6.6211 1.21485,-1.14453 2.41016,-2.30468 3.58594,-3.48437 0.27734,-0.27344 0.55078,-0.55078 0.82422,-0.82813 0.11719,-0.11718 0.375,-0.32031 0.46875,-0.47656 0.21094,-0.35156 0.1914,-0.16797 0.0508,-0.57422 -0.31641,-0.91797 -1.02734,-1.8164 -1.52344,-2.64844 z m -87.5,-40.10546 c 0.48828,0.32812 0.96485,0.66796 1.4375,1.01171 -0.23828,-1.47265 0.92188,-2.79296 2.39453,-2.8125 1.14453,-0.0156 2.3711,0.42579 3.40625,0.85938 1.45703,0.60937 2.82032,1.47266 4,2.52734 0.1836,0.16407 0.71094,0.8711 0.92578,0.90235 0.1875,0.0273 0.75391,-0.45313 0.96094,-0.57422 0.78125,-0.46875 1.57031,-0.92969 2.36328,-1.37891 6.07813,-3.43359 12.49219,-6.32812 19.15625,-8.41797 -7.85156,-4.6289 -15.86718,-8.97265 -23.86328,-13.33984 1.41797,0 2.83594,0.0156 4.25,0.043 -6.85156,-3.73828 -13.71094,-7.47656 -20.44922,-11.41406 -0.39062,-0.22657 -0.78125,-0.45704 -1.17187,-0.6875 -0.53516,-0.31641 -0.6211,-0.21485 -1.13672,0.125 -0.80078,0.52734 -1.60156,1.05468 -2.41016,1.5664 -1.63672,1.03516 -3.24609,2.11328 -4.83203,3.22266 -3.11328,2.17969 -6.15234,4.46094 -9.12109,6.83203 -2.91797,2.33203 -5.8086,4.71094 -8.6211,7.17187 -0.74218,0.64844 -1.47656,1.3086 -2.21093,1.96875 -0.33203,0.30079 -0.66407,0.60157 -1,0.90235 -0.15625,0.14062 -0.5625,0.66406 -0.77344,0.69531 -0.33594,0.0469 -1.16406,-0.73437 -1.46094,-0.94141 -0.48437,-0.33203 -0.96875,-0.66406 -1.45312,-0.99609 -1.26563,-0.875 -2.53516,-1.74609 -3.80469,-2.61719 -2.90234,-1.99609 -5.78125,-4.03906 -8.625,-6.11328 0.21094,2.1875 0.49609,4.37891 0.61719,6.57422 0.0586,1.08984 0.0273,2.16406 -0.11328,3.24609 -0.0977,0.75 0.0195,0.78907 0.61328,1.30469 0.42968,0.37891 0.86328,0.75 1.30078,1.1211 3.53125,3.00781 7.19922,5.85546 10.91015,8.63671 -0.21484,-1 -0.43359,-2.0039 -0.65234,-3.0039 5.85938,4.46484 11.87891,8.70703 17.76563,13.13281 -1.20704,-5.41406 -2.23047,-10.87109 -3.32813,-16.30859 3.15625,1.47265 6.30859,2.94531 9.46484,4.41797 -0.7539,-1.38282 0.043,-3.16407 1.57813,-3.51172 1.22266,-0.27735 2.67187,0.41015 3.80078,0.79687 3.57031,1.21485 6.96094,2.94531 10.08203,5.0586 z m -36.65625,-44.29688 c 0.95703,0.81641 1.94141,1.72656 3.29688,1.33203 -1.10547,-0.42187 -2.20703,-0.86719 -3.29688,-1.33203 z m -9.87109,7.375 c -2.28906,-0.95312 -4.63281,-1.78516 -7.04688,-2.36328 -1.72265,-0.41406 -3.59375,0.77344 -3.21093,2.74219 -2.75,-1.67188 -5.50001,-3.34766 -8.2461,-5.01953 1.11719,5.72656 2.20703,11.45703 3.37109,17.17578 -4.80078,-6.29297 -7.73828,-13.53907 -9.8125,-21.13282 -0.59765,0.33985 -1.19531,0.6836 -1.79296,1.02344 -0.58985,-2.01562 -1.10938,-4.05859 -1.60938,-6.09765 -0.25,-1.00391 -0.48437,-2.00782 -0.70703,-3.01563 -0.0586,-0.26953 -0.23047,-0.58984 -0.0977,-0.80469 0.11328,-0.17968 0.56641,-0.35547 0.74219,-0.46484 0.48047,-0.30469 0.95703,-0.60938 1.4375,-0.91016 3.30469,-2.08593 6.60938,-4.17187 9.91406,-6.2539 5.00782,-3.16407 10.01563,-6.32422 15.02344,-9.48438 1.69141,-1.0664 3.70703,-1.93359 5.17969,-3.26172 1.33984,-1.21093 2.66797,-2.4414 4,-3.66406 -0.15625,0.38672 -0.26953,0.82031 -0.45313,1.19531 -0.17187,0.35547 -0.42187,0.60547 -0.63281,0.94922 -0.47265,0.76953 -0.83203,1.64453 -1.17969,2.47266 -0.73046,1.75 -1.27343,3.58203 -1.60156,5.44922 -0.67187,3.84375 -0.46875,7.82422 0.6875,11.55859 1.07422,3.46484 2.91797,6.68359 5.41797,9.32031 0.57422,0.60547 1.18359,1.17188 1.81641,1.71485 0.28515,0.24609 1.9414,1.625 1.65625,0.33984 -0.0625,-0.27734 -0.52735,-0.68359 -0.71094,-0.92187 -0.28906,-0.375 -0.57031,-0.75782 -0.83984,-1.14844 -0.53516,-0.77344 -1.03516,-1.57031 -1.48829,-2.39453 -2.13671,-3.88282 -3.28906,-8.32032 -3.16015,-12.76172 3.96875,11.05469 15.0039,17.95312 24.40625,23.96094 -0.48828,0.30468 -1.13281,0.10546 -1.6875,0.0351 -0.82813,-0.10156 -1.65625,-0.23047 -2.47656,-0.375 0.16406,0.10938 0.32812,0.21875 0.49218,0.32813 -1.90625,1.27734 -3.78515,2.59765 -5.63672,3.95703 -0.48828,0.35937 -0.97265,0.72265 -1.46093,1.08594 -0.25391,0.1914 -0.50782,0.38671 -0.76172,0.57812 -0.40625,0.30469 -0.3086,0.32813 -0.78516,0.16797 -1.03906,-0.34375 -2.05859,-1.12891 -3.0625,-1.60156 -2.02344,-0.94532 -4.17187,-1.71485 -6.35937,-2.17578 -0.77344,-0.16407 -1.48828,-0.32032 -2.24219,0.0156 -0.99609,0.44141 -1.58984,1.51563 -1.41797,2.59766 -1.83203,-1.04688 -3.72266,-1.99219 -5.66406,-2.81641 z m -35.73828,-6.65625 c -0.53516,-1.90234 -1.03907,-3.80859 -1.4961,-5.73437 -5.41015,3.41406 -10.82031,6.82812 -16.22656,10.24218 -0.77344,0.48828 -1.54687,0.97657 -2.32031,1.46485 2.11328,-6.87891 4.22656,-13.75782 6.34375,-20.63282 1.80859,-5.89453 3.62109,-11.78906 5.43359,-17.67968 0.55859,-1.82032 1.11719,-3.63672 1.67578,-5.45703 0.13672,-0.4375 0.20703,-0.69532 0.20313,-1.14454 -0.0273,-2.63281 -0.34766,-5.29296 -0.46485,-7.92578 -0.96093,1.00391 -2.16015,1.76953 -3.46875,2.23047 -0.53906,0.1875 -0.88672,0.35938 -1.36718,0.66406 -1.23047,0.77735 -2.45704,1.55469 -3.6875,2.32813 -0.89844,0.56641 -1.79297,1.13281 -2.69141,1.69531 -5.13672,3.2461 -10.27344,6.48828 -15.41016,9.73047 -3.72656,2.35156 -7.45703,4.70313 -11.18359,7.05859 -3.765625,2.375 -7.527344,4.75 -11.292969,7.125 -2.449218,1.54688 -4.898437,3.09375 -7.351562,4.63672 -0.378906,0.24219 -1.378906,0.63282 -1.617188,1.02344 -0.285156,0.46875 0.191407,1.98047 0.277344,2.54688 0.234375,1.58593 0.496094,3.16406 0.777344,4.74218 0.28125,1.59375 0.558594,3.19141 0.882812,4.77735 L 119.77734,316.73438 113.26953,361 l 27.53125,-17.17969 5.48047,-7.62109 c 0.082,-0.17188 -0.20703,-0.79297 -0.26563,-1 -0.2539,-0.87891 -0.51171,-1.75391 -0.76171,-2.63672 z M 81.125,319.23438 c -0.296875,0.96093 -0.589844,1.91796 -0.886719,2.8789 -1.578125,-12 -2.042968,-24.17969 -1.3125,-36.26562 0.347657,-5.73828 0.972657,-11.46485 1.96875,-17.125 0.07813,-0.44141 0.160157,-2.14844 0.511719,-2.3086 0.265625,-0.12109 0.964844,0.0547 1.25,0.0703 1.46875,0.0859 2.9375,0.17187 4.40625,0.2539 2.074219,0.1211 4.148438,0.24219 6.21875,0.36328 0.457031,0.0274 1.359375,-0.10156 1.773438,0.10157 0.257812,0.125 0.34375,0.67187 0.476562,0.96484 0.175781,0.38281 0.804688,1.05859 0.851563,1.4375 0.03125,0.26953 -0.238282,0.76562 -0.316407,1.01953 -1.542968,5.01953 -3.085937,10.03516 -4.625,15.05469 -1.394531,4.53125 -2.789062,9.0625 -4.179687,13.59765 -2.046875,6.65235 -4.09375,13.30079 -6.136719,19.95704" /><path
             id="path66"
             style="fill:#9269df;fill-opacity:1;fill-rule:nonzero;stroke:none"
             d="m 170.87891,322.14453 c -5.00782,2.85938 -10.01172,5.71875 -15.01954,8.58203 -0.27734,0.15625 -1.47656,0.60157 -1.60546,0.91797 -0.38282,0.92578 1.41796,4.55078 1.7539,5.51563 0.5586,1.61328 1.14844,3.21875 1.80469,4.79297 2.65625,6.39453 6.84375,12.01171 11.59375,17.0039 -1.44141,-6.75781 -2.76172,-13.53515 -4.08984,-20.3125 4.37109,2.65625 8.74218,5.29688 13.0625,8.02735 2.60156,1.64453 5.1914,3.30468 7.77734,4.98046 0.64063,0.41016 1.28125,0.82032 1.91406,1.24219 1.6875,1.10938 1.64063,1.55078 3.27344,0.12891 -3.30469,-3.16406 -6.83594,-6.05078 -10.60937,-8.64063 -1.96875,-1.35547 -3.9961,-2.625 -6.05079,-3.84375 -1.68359,-1 -2.99218,-2.2539 0.0391,-1.41406 4.25781,1.18359 8.33593,3.04297 12.10547,5.33203 1.86328,1.12891 3.66796,2.3711 5.3789,3.72266 0.42969,0.33594 1.34375,1.33203 1.85938,1.55469 0.40625,0.6875 0.82422,0.66015 1.2539,-0.0859 0.46875,-0.38281 0.94141,-0.76563 1.41407,-1.14453 -1.23047,-0.9961 -2.46485,-1.99219 -3.69922,-2.98828 -1.09375,-0.88672 -6.53907,-4.61719 -2.97266,-4.10547 1.84375,0.26562 3.73047,1.08593 5.41406,1.83984 1.01563,0.45313 2.00391,0.96875 2.96875,1.51953 1.39063,0.79297 1.17578,1.05469 2.51563,0.44141 1.70312,-0.77735 3.28906,-2.48047 4.83594,-3.58594 1.94921,-1.38672 3.92968,-2.75 5.95703,-4.02344 -14.6875,-1.1875 -27.9336,-9.07812 -40.875,-15.45703 z m 41.94531,-80.49219 c -2.03125,2.125 -3.83203,4.47657 -5.33984,7 -1.3125,2.19141 -3.23829,5.23829 -3.53907,7.82422 -0.22656,1.92969 1.25391,4.4961 1.97266,6.33594 1.09766,2.80469 2.26562,5.58984 3.49219,8.34375 2.29297,5.13672 4.97656,9.46094 9.40234,13.04688 4.68359,3.78906 10.18359,6.41015 15.6875,8.78125 -7.47266,-7.30469 -16.92969,-16.0586 -18.20312,-27.08204 -0.35157,-3.0625 0.41796,-5.99218 0.875,-9.0039 0.48437,-3.16797 0.84765,-6.35547 1.13671,-9.54688 0.33204,-3.6289 0.58594,-7.26953 0.71094,-10.91406 -2.28125,1.42969 -4.33984,3.27344 -6.19531,5.21484 z m 157.81641,-12.11328 c -4.4961,-10.63281 -9.97657,-20.84765 -16.34375,-30.47656 0.41406,2.83594 -0.17579,5.75 -0.73829,8.51953 -0.28906,1.40235 -1.44921,3.94141 -1.21093,5.26172 0.3125,1.76172 2.33593,4.13281 3.1914,5.73438 3.91797,7.35156 7.32422,14.97656 10.17969,22.80468 5.91016,16.20703 9.4375,33.25782 10.47656,50.47657 1.95313,32.37109 -4.90234,65.03125 -19.90625,93.79296 -13.83984,26.52344 -34.35547,49.44141 -59.1875,66.11719 -25,16.78516 -54.14843,27.13672 -84.16015,29.71485 -30.77344,2.64062 -62,-2.60547 -90.10547,-15.42579 C 98.085938,454.77344 76.03125,437.80078 58.726563,416.81641 41.339844,395.73047 28.871094,370.70703 22.605469,344.09766 16.007812,316.09375 16.25,286.50781 23.320313,258.61719 c 6.839843,-26.9961 20.085937,-52.23438 38.335937,-73.26563 18.113281,-20.8789 41.02734,-37.48828 66.54687,-48.1289 3.01954,-1.25782 6.07032,-2.4375 9.15625,-3.52735 0.34375,-0.12109 2.40235,-0.54297 2.60547,-0.89844 0.19532,-0.33984 -0.5039,-2.10546 -0.60547,-2.51562 -0.51171,-2.05469 -1.0625,-4.09766 -1.64062,-6.13281 C 82.871094,142.42187 38.558594,186.0625 19.433594,240.61328 -0.5625,297.66406 8.5976563,362.625 43.667969,411.86328 c 34.054687,47.80469 89.589841,77.57031 148.300781,79.15235 59.0625,1.58984 116.33203,-25.20704 152.99609,-71.53125 37.26954,-47.08985 49.76954,-110.85547 33.23047,-168.58204 -2.07812,-7.26562 -4.60937,-14.40234 -7.55468,-21.36328 z M 213.54297,119.75391 c 0.10937,1.07812 0.0156,2.58984 0.35156,3.61718 0.3711,1.14063 -0.45312,0.51172 1.00781,0.98047 0.5,0.16016 1.36329,0.13672 1.84766,0.19141 2.44922,0.26562 4.89453,0.58203 7.32813,0.94922 4.82421,0.72656 9.61718,1.64844 14.36718,2.76562 9.20313,2.16797 18.23047,5.07032 26.97266,8.67188 17.32031,7.1289 33.48437,17.0039 47.76172,29.125 2.01172,1.70703 3.98437,3.45703 5.92187,5.2539 1.87891,1.74219 3.62891,3.98829 5.67969,5.50391 1.8125,1.33984 5.47656,0.92188 7.83203,1.46875 3.08203,0.71875 6.05469,1.89844 8.77344,3.51953 -24.55859,-29.1875 -57.73438,-50.57422 -94.55469,-60.625 -11.04297,-3.01562 -22.36328,-5 -33.76953,-5.94531 0.16797,1.50781 0.32813,3.01562 0.48047,4.52344 z m 0.58594,109.43359 c 4.41406,-0.21484 8.85547,-0.008 13.22265,0.67578 0.97266,0.15235 2.32422,0.71094 3.29688,0.625 1.30078,-0.11719 2.78125,-1.38281 4.08203,-1.96484 7.625,-3.41406 16.49609,-4.28516 24.73828,-4.9375 -8.88281,-3.1836 -18.0625,-6.1875 -27.61328,-4.53516 -6.96875,1.20313 -12.98438,4.97266 -17.72656,10.13672 z m 105.04687,190.38281 c -0.57031,-1.07031 -1.14453,-2.14062 -1.7539,-3.1914 -0.76172,-1.32422 -0.54688,-1.58594 -1.79688,-1.26953 -1.15234,0.28906 -2.45703,1.36718 -3.49609,1.94921 -2.60938,1.46875 -5.21094,2.94922 -7.80469,4.44532 -6.24609,3.60156 -12.44531,7.28515 -18.54297,11.1289 -5.625,3.54688 -11.22656,7.19141 -16.46484,11.28907 -2.64844,2.07421 -7.0586,4.97656 -7.94922,8.46484 -2.29297,-4.60547 -4.58594,-9.21094 -6.87891,-13.81641 -2.54297,4.56641 -5.08594,9.13672 -7.6289,13.70313 -1.66407,2.98828 -3.32422,5.97265 -4.98829,8.96094 -0.94531,1.69531 -2.02734,3.13281 -2.22656,5.0625 30.21094,-7.82422 57.95703,-24.1875 79.53125,-46.72657 z M 239.52734,439.25 c 1.66016,-6.19922 0.50391,-12.08203 -0.45703,-18.27344 -0.67968,-4.35547 -1.57031,-8.67187 -2.40625,-12.99609 10.64844,4.55078 21.15625,9.53516 27.15235,20.11719 0.76953,-0.57422 -2.51172,-7.27344 -2.63672,-7.51172 -1.07422,-2.07031 -2.39063,-4.00391 -3.89844,-5.77735 -0.64062,-0.7539 -4.50391,-3.67968 -4.50391,-4.43359 0,-1.48437 3.97266,1.08984 4.65625,1.53516 1.86719,1.21875 3.55079,2.6914 5.01954,4.36718 2.32421,2.66016 3.95703,5.71875 5.13281,9.03125 1.02344,-0.73437 2.27734,-1.22265 2.32812,-2.32812 0.043,-0.92969 -0.90625,-2.65625 -1.24218,-3.52734 -0.6875,-1.78907 -1.46094,-3.53907 -2.23829,-5.28907 -0.90625,-2.04297 -0.5039,-2.52734 1.51954,-0.77734 2.42578,2.09375 4.33203,4.79687 5.70703,7.67578 10.5664,-7.20703 22.35156,-14.45312 34.77734,-17.88672 -3.01172,-3.76562 -6.27344,-7.32031 -9.73047,-10.67578 -1.66015,-1.60937 -3.36719,-3.17578 -5.10937,-4.69531 -1.63672,-1.42578 -2.04297,-1.60938 -4.05469,-1.47266 -5.91016,0.40235 -11.8125,0.95703 -17.6875,1.72266 -6.60156,0.85547 -13.21094,1.93359 -19.63672,3.68359 -4.73828,1.28516 -10.39062,2.87891 -13.95703,6.47656 -0.74219,0.75 -0.63281,0.9375 -1.48438,0.9336 -0.93359,-0.008 -2.34765,-0.88672 -3.21093,-1.21485 -2.10157,-0.79296 -4.19922,-1.58593 -6.30078,-2.3789 -0.0898,2.1914 -0.17969,4.38281 -0.27344,6.57031 -0.0547,1.28906 -0.25,2.66406 -0.16406,3.94922 0.10156,1.44922 0.73437,1.86719 1.71875,3.14062 6.92968,8.95704 9.69531,18.91797 10.98046,30.03516 z m -35.03515,29.66797 c -0.60156,0.93359 -1.26953,1.82031 -1.98047,2.67578 7.57422,-0.23437 15.13281,-0.97266 22.60547,-2.21875 1.33594,-0.22266 3.60156,-0.16016 4.72656,-0.85547 0.92188,-0.57422 0.77734,-2.15625 0.90234,-3.3789 0.33594,-3.26172 0.53907,-6.53516 0.60547,-9.81641 0.25391,-12.29297 -0.48437,-26.32813 -7.23047,-36.99219 -6.34765,-10.02734 -16.19531,-17.53906 -25.57812,-24.53906 -10.19141,-7.60547 -20.77344,-14.77344 -30.17969,-23.37109 -4.95312,-4.53125 -9.58594,-9.47266 -13.35937,-15.04688 -3.99219,-5.89453 -6.59766,-12.41406 -8.69922,-19.1875 -9.49219,5.42188 -18.98047,10.84375 -28.47266,16.26563 2.73438,-14.46485 5.46485,-28.9336 8.19531,-43.39844 0.39063,-2.0586 0.77735,-4.11719 1.16797,-6.17578 -14.42187,10.07031 -28.839841,20.14062 -43.261716,30.21093 -0.375,0.26563 -1.433594,0.73047 -1.65625,1.15625 -0.289063,0.55469 0.5,2.39844 0.648437,3.05469 0.300782,1.32813 0.621094,2.65235 0.957032,3.97266 0.695312,2.70703 1.46875,5.39844 2.339843,8.05469 2.835938,8.64062 6.902344,16.70312 11.863282,24.3125 9.753902,14.96875 22.082032,28.01562 33.523432,41.67187 10.78125,12.87109 22.9375,27.65234 25.01172,44.9375 2.15625,-26.80469 -25.0039,-43.85547 -37.16796,-64.51953 -1.59376,-2.71094 -3.02735,-5.52344 -4.17969,-8.45313 -0.4336,-1.09765 -3.23047,-7.59375 -2.16407,-8.46875 0.36329,-0.30078 2.5,5.78125 2.85157,6.59375 1.28515,2.95704 2.84375,5.78907 4.59765,8.49219 7.1211,10.96485 17.04688,19.66016 25.41797,29.60547 9.47656,11.25391 17.15625,25.41406 14.57031,40.59375 5.58204,-1.85547 10.76954,-5.23437 13.61329,-10.51953 3.46484,-6.44141 2.96093,-14.37891 1.01562,-21.21094 -3.36328,-11.82812 -11.45312,-22.00781 -20.37109,-30.22656 -2.08594,-1.92188 -4.25,-3.78906 -6.54297,-5.46875 6.50781,2.96484 12.71875,6.79297 18.46875,11.02734 10.23047,7.53907 20.17578,17.55078 22.92578,30.40625 2.00781,9.37891 -0.19922,18.89063 -5.46094,26.81641 5.76172,-5.59375 9.64844,-12.85156 11.02735,-20.76953 0.75,-4.27735 0.77343,-8.6875 0.11328,-12.98047 -0.3086,-1.98438 -1.54688,-4.49609 -1.53125,-6.42578 0.0117,-2.125 0.96094,-0.11328 1.4375,0.96484 7.01172,15.85156 1.71875,34.6875 -11.58985,45.4375 1.94532,0.15625 4.53516,-1.84765 6.07813,-2.91015 4.01953,-2.76954 7.43359,-6.42969 9.98047,-10.58985 0.34375,-0.55469 2.01172,-4.53515 2.68359,-4.1875 1.07422,0.55469 -1.27344,5.96875 -1.63281,6.79688 -1.9375,4.43359 -5.01953,8.32812 -8.78906,11.34375 1.78125,0.0547 3.63281,0.36328 5.15234,-0.4961 1.21875,-0.68359 2.36328,-2 3.33203,-3 1.99219,-2.04687 3.73438,-4.33203 5.22266,-6.76953 0.91797,-1.5 3.45703,-6.47656 2.53515,-1.52344 -0.60156,3.23829 -1.9375,6.35547 -3.72265,9.10938 z M 326.19922,192.76953 c 4.11719,1.09375 5.92578,5.46875 10.56641,3.80078 -2.61719,-3.51172 -6.17579,-5.89843 -10.56641,-3.80078 z M 142.19531,150.39844 c -0.16406,1.26953 3.03125,4.41797 3.95703,5.42578 3.21094,3.49219 7.0586,6.44922 11.31641,8.54297 6.32812,3.11718 13.46875,4.08203 20.39453,2.71875 3.98828,-0.78516 7.79688,-2.28907 11.33985,-4.26563 3.21484,-1.79297 6.71093,-3.1914 9.72265,-5.33594 2.64063,-1.88671 5.03516,-4.27343 6.65625,-7.10156 0.5,-0.875 0.55078,-1.46094 1.30469,-1.83203 0.80859,-0.39453 2.30078,-0.23828 3.17969,-0.29687 1.90234,-0.13282 3.80859,-0.1875 5.71093,-0.1875 12.05469,-0.004 24.69141,2.08984 35.72657,7.05078 14.9414,6.72265 27.69922,19.98047 36.65234,33.48047 -3.83203,1.78125 -7.66797,3.5625 -11.5,5.34765 11.04297,1.91016 23.10547,-0.32812 33.55469,-3.92968 6.92969,-2.38672 13.49219,-4.83204 20.89844,-2.92579 5.41406,1.39844 10.52343,4.97657 13.18359,9.97657 2.31641,4.35547 0.48047,9.34765 -0.65234,13.83593 -8.6875,-3.67578 -18.14063,-6.90625 -27.66016,-7.11718 -4.83594,-0.10938 -9.48047,1.21484 -14.25781,1.7539 -4.32422,0.48828 -8.67188,0.57032 -13.01172,0.35938 -9.61328,-0.46485 -18.50781,-3.34766 -27.78516,-5.78125 -3.53906,-0.92578 -7.07422,-1.85547 -10.61328,-2.78516 4.95313,-4.48437 13.75,-5.61719 19.96875,-6.60156 -6.73437,-6.20703 -14.46875,-11.9375 -22.84375,-15.69531 -2.70312,-1.21094 -5.54687,-2.22657 -8.48828,-2.66797 -3.61719,-0.54297 -7.24219,0.21094 -10.87891,0.15625 -7.03515,-0.10156 -14.33593,-1.44141 -20.88281,-4.08203 -0.0781,7.48828 2.6875,14.64062 8.35547,19.66406 -15.84766,0.41406 -31.86719,4.0625 -47.03906,8.35156 -11.7461,3.32031 -23.3711,7.07813 -35.26563,9.85938 -10.66406,2.48828 -22.32031,4.83984 -33.16406,2.03906 -6.566407,-1.69922 -11.410157,-5.79688 -16.785157,-9.71875 8.839843,-0.66797 17.480467,-3.42969 25.070307,-8.00781 3.90626,-2.35547 7.52735,-5.1836 10.75782,-8.39844 1.61328,-1.60938 2.92578,-3.65234 4.58984,-5.16797 0.42188,-0.38672 4.2461,-2.54687 3.36328,-3.21875 -0.55468,-0.42187 -3.90234,1.75 -4.64453,2.03516 -2.40234,0.92187 -4.94922,1.53515 -7.5,1.87109 -3.09375,0.40234 -7.94922,0.91797 -10.57031,-1.08203 -3.15625,-2.40625 -5.812501,-6.02344 -8.57422,-8.89063 13.52734,-5.0625 27.05078,-10.1289 40.57812,-15.1914 1.94532,-0.73047 3.89063,-1.45703 5.83594,-2.1875 z m 22.8711,103.64844 c -7.21875,6.71875 -12.40235,15.92578 -17.08985,24.5039 5.875,0.33985 11.72266,1.14453 17.10156,3.69531 1.21875,-6.3125 2.51954,-12.6289 5.01954,-18.58593 2.46875,-5.89063 6.04687,-11.39063 10.14453,-16.28125 -8.48438,1.35547 -16.99219,4.97656 -24.0586,9.8125 3.94532,-2.1875 8.04688,-4.19141 12.28907,-5.7461 -1.2461,0.70703 -2.36329,1.62891 -3.40625,2.60157 z m -59.38282,8.40234 c 7.96485,0.46094 16.64454,3.68359 22.50782,9.15625 5.17578,-14.46484 12.39062,-27.22656 24.85546,-36.64453 -14.77343,-1.03516 -29.30078,4.05078 -40.66406,13.29687 1.13282,-0.67578 2.26563,-1.35156 3.39844,-2.02734 -3.60547,5.39453 -7.21484,10.78906 -10.82422,16.17969 0.24219,0.0156 0.48438,0.0273 0.72656,0.0391 z m 125.35547,114.02344 c -0.52734,0.5664 2.53516,3.20703 2.92578,3.72265 0.46094,0.60938 1.35938,1.6836 1.57422,2.44141 0.66797,0.66797 0.52344,1.12891 -0.4414,1.38281 -0.36328,0.66797 -0.66797,0.83203 -0.91797,0.48828 -0.90235,-0.1914 -3.14063,-3.10937 -3.9375,-3.78515 -1.83985,-1.56641 -3.80469,-2.98047 -5.875,-4.21875 -2.0586,-1.22657 -4.21485,-2.28907 -6.46094,-3.13282 -0.88672,-0.33203 -4.35547,-1.96093 -3.95703,-0.38671 0.15625,0.61328 3.02734,1.98437 3.60937,2.38671 0.875,0.60938 1.73829,1.23829 2.58985,1.88282 2.26953,1.71875 4.4375,3.5664 6.47656,5.55468 -7.09375,-3.32031 -14.19141,-6.6289 -21.28516,-9.9414 1.21094,5.99609 2.20313,12.11719 4.00782,17.96484 -6.29297,-4.92969 -12.82813,-9.53515 -19.24219,-14.30469 -2.38281,-1.77343 -2.33984,-5.77343 -2.95703,-8.60937 2.60156,1.93359 5.19922,3.86328 7.80078,5.79687 1.18359,-4.27734 4.16406,-8.13281 7.42578,-11.02734 5.20313,-4.61328 11.26172,-6.0625 18.00781,-6.87109 6.78125,-0.8125 13.65235,-0.96485 20.47657,-0.88282 4.04296,0.0508 8.71093,3.86329 12.19531,5.8086 4.7539,2.65234 9.48047,5.36328 14.13281,8.1914 -6.99609,1.77735 -13.70312,4.46485 -20.09766,7.80079 -1.53125,0.79687 -3.03906,1.63281 -4.52734,2.5039 -0.70312,0.41406 -1.40625,0.83203 -2.10156,1.26172 -1.05469,0.64844 -0.82422,0.66797 -1.64844,0.17188 -1.28125,-0.77344 -2.1875,-2.22657 -3.58203,-3.01172 -0.67969,-0.38282 -3.5,-1.92188 -4.19141,-1.1875" /></g></g></g></g></svg>